<?xml version="1.0" encoding="utf-8" ?>
<svg baseProfile="full" height="550" version="1.1" viewBox="(0, 0, 1350, 550)" width="1350" xmlns="http://www.w3.org/2000/svg" xmlns:ev="http://www.w3.org/2001/xml-events" xmlns:xlink="http://www.w3.org/1999/xlink"><defs /><text fill="black" font-family="Gill Sans, sans-serif" font-size="40" font-weight="100" x="30" y="50">Stream graph ordering</text><line stroke="black" stroke-width="1.5" x1="80" x2="90" y1="110" y2="110" /><line stroke="black" stroke-width="1.5" x1="100" x2="110" y1="110" y2="110" /><line stroke="black" stroke-width="1.5" x1="120" x2="130" y1="110" y2="110" /><line stroke="black" stroke-width="1.5" x1="140" x2="150" y1="110" y2="110" /><line stroke="black" stroke-width="1.5" x1="160" x2="170" y1="110" y2="110" /><line stroke="black" stroke-width="1.5" x1="180" x2="190" y1="110" y2="110" /><line stroke="black" stroke-width="1.5" x1="200" x2="210" y1="110" y2="110" /><line stroke="black" stroke-width="1.5" x1="220" x2="230" y1="110" y2="110" /><line stroke="black" stroke-width="1.5" x1="240" x2="250" y1="110" y2="110" /><line stroke="black" stroke-width="1.5" x1="260" x2="270" y1="110" y2="110" /><line stroke="black" stroke-width="1.5" x1="280" x2="290" y1="110" y2="110" /><line stroke="black" stroke-width="1.5" x1="300" x2="310" y1="110" y2="110" /><line stroke="black" stroke-width="1.5" x1="320" x2="330" y1="110" y2="110" /><line stroke="black" stroke-width="1.5" x1="340" x2="350" y1="110" y2="110" /><line stroke="black" stroke-width="1.5" x1="360" x2="370" y1="110" y2="110" /><line stroke="black" stroke-width="1.5" x1="380" x2="390" y1="110" y2="110" /><line stroke="black" stroke-width="1.5" x1="400" x2="410" y1="110" y2="110" /><line stroke="black" stroke-width="1.5" x1="420" x2="430" y1="110" y2="110" /><line stroke="black" stroke-width="1.5" x1="440" x2="450" y1="110" y2="110" /><line stroke="black" stroke-width="1.5" x1="460" x2="470" y1="110" y2="110" /><line stroke="black" stroke-width="1.5" x1="480" x2="490" y1="110" y2="110" /><line stroke="black" stroke-width="1.5" x1="500" x2="510" y1="110" y2="110" /><line stroke="black" stroke-width="1.5" x1="520" x2="530" y1="110" y2="110" /><line stroke="black" stroke-width="1.5" x1="540" x2="550" y1="110" y2="110" /><line stroke="black" stroke-width="1.5" x1="560" x2="570" y1="110" y2="110" /><text fill="black" font-family="Verdana" font-size="22.5" x="30" y="120">0</text><line stroke="black" stroke-width="1.5" x1="80" x2="90" y1="150" y2="150" /><line stroke="black" stroke-width="1.5" x1="100" x2="110" y1="150" y2="150" /><line stroke="black" stroke-width="1.5" x1="120" x2="130" y1="150" y2="150" /><line stroke="black" stroke-width="1.5" x1="140" x2="150" y1="150" y2="150" /><line stroke="black" stroke-width="1.5" x1="160" x2="170" y1="150" y2="150" /><line stroke="black" stroke-width="1.5" x1="180" x2="190" y1="150" y2="150" /><line stroke="black" stroke-width="1.5" x1="200" x2="210" y1="150" y2="150" /><line stroke="black" stroke-width="1.5" x1="220" x2="230" y1="150" y2="150" /><line stroke="black" stroke-width="1.5" x1="240" x2="250" y1="150" y2="150" /><line stroke="black" stroke-width="1.5" x1="260" x2="270" y1="150" y2="150" /><line stroke="black" stroke-width="1.5" x1="280" x2="290" y1="150" y2="150" /><line stroke="black" stroke-width="1.5" x1="300" x2="310" y1="150" y2="150" /><line stroke="black" stroke-width="1.5" x1="320" x2="330" y1="150" y2="150" /><line stroke="black" stroke-width="1.5" x1="340" x2="350" y1="150" y2="150" /><line stroke="black" stroke-width="1.5" x1="360" x2="370" y1="150" y2="150" /><line stroke="black" stroke-width="1.5" x1="380" x2="390" y1="150" y2="150" /><line stroke="black" stroke-width="1.5" x1="400" x2="410" y1="150" y2="150" /><line stroke="black" stroke-width="1.5" x1="420" x2="430" y1="150" y2="150" /><line stroke="black" stroke-width="1.5" x1="440" x2="450" y1="150" y2="150" /><line stroke="black" stroke-width="1.5" x1="460" x2="470" y1="150" y2="150" /><line stroke="black" stroke-width="1.5" x1="480" x2="490" y1="150" y2="150" /><line stroke="black" stroke-width="1.5" x1="500" x2="510" y1="150" y2="150" /><line stroke="black" stroke-width="1.5" x1="520" x2="530" y1="150" y2="150" /><line stroke="black" stroke-width="1.5" x1="540" x2="550" y1="150" y2="150" /><line stroke="black" stroke-width="1.5" x1="560" x2="570" y1="150" y2="150" /><text fill="black" font-family="Verdana" font-size="22.5" x="30" y="160">1</text><line stroke="black" stroke-width="1.5" x1="80" x2="90" y1="190" y2="190" /><line stroke="black" stroke-width="1.5" x1="100" x2="110" y1="190" y2="190" /><line stroke="black" stroke-width="1.5" x1="120" x2="130" y1="190" y2="190" /><line stroke="black" stroke-width="1.5" x1="140" x2="150" y1="190" y2="190" /><line stroke="black" stroke-width="1.5" x1="160" x2="170" y1="190" y2="190" /><line stroke="black" stroke-width="1.5" x1="180" x2="190" y1="190" y2="190" /><line stroke="black" stroke-width="1.5" x1="200" x2="210" y1="190" y2="190" /><line stroke="black" stroke-width="1.5" x1="220" x2="230" y1="190" y2="190" /><line stroke="black" stroke-width="1.5" x1="240" x2="250" y1="190" y2="190" /><line stroke="black" stroke-width="1.5" x1="260" x2="270" y1="190" y2="190" /><line stroke="black" stroke-width="1.5" x1="280" x2="290" y1="190" y2="190" /><line stroke="black" stroke-width="1.5" x1="300" x2="310" y1="190" y2="190" /><line stroke="black" stroke-width="1.5" x1="320" x2="330" y1="190" y2="190" /><line stroke="black" stroke-width="1.5" x1="340" x2="350" y1="190" y2="190" /><line stroke="black" stroke-width="1.5" x1="360" x2="370" y1="190" y2="190" /><line stroke="black" stroke-width="1.5" x1="380" x2="390" y1="190" y2="190" /><line stroke="black" stroke-width="1.5" x1="400" x2="410" y1="190" y2="190" /><line stroke="black" stroke-width="1.5" x1="420" x2="430" y1="190" y2="190" /><line stroke="black" stroke-width="1.5" x1="440" x2="450" y1="190" y2="190" /><line stroke="black" stroke-width="1.5" x1="460" x2="470" y1="190" y2="190" /><line stroke="black" stroke-width="1.5" x1="480" x2="490" y1="190" y2="190" /><line stroke="black" stroke-width="1.5" x1="500" x2="510" y1="190" y2="190" /><line stroke="black" stroke-width="1.5" x1="520" x2="530" y1="190" y2="190" /><line stroke="black" stroke-width="1.5" x1="540" x2="550" y1="190" y2="190" /><line stroke="black" stroke-width="1.5" x1="560" x2="570" y1="190" y2="190" /><text fill="black" font-family="Verdana" font-size="22.5" x="30" y="200">2</text><line stroke="black" stroke-width="1.5" x1="80" x2="90" y1="230" y2="230" /><line stroke="black" stroke-width="1.5" x1="100" x2="110" y1="230" y2="230" /><line stroke="black" stroke-width="1.5" x1="120" x2="130" y1="230" y2="230" /><line stroke="black" stroke-width="1.5" x1="140" x2="150" y1="230" y2="230" /><line stroke="black" stroke-width="1.5" x1="160" x2="170" y1="230" y2="230" /><line stroke="black" stroke-width="1.5" x1="180" x2="190" y1="230" y2="230" /><line stroke="black" stroke-width="1.5" x1="200" x2="210" y1="230" y2="230" /><line stroke="black" stroke-width="1.5" x1="220" x2="230" y1="230" y2="230" /><line stroke="black" stroke-width="1.5" x1="240" x2="250" y1="230" y2="230" /><line stroke="black" stroke-width="1.5" x1="260" x2="270" y1="230" y2="230" /><line stroke="black" stroke-width="1.5" x1="280" x2="290" y1="230" y2="230" /><line stroke="black" stroke-width="1.5" x1="300" x2="310" y1="230" y2="230" /><line stroke="black" stroke-width="1.5" x1="320" x2="330" y1="230" y2="230" /><line stroke="black" stroke-width="1.5" x1="340" x2="350" y1="230" y2="230" /><line stroke="black" stroke-width="1.5" x1="360" x2="370" y1="230" y2="230" /><line stroke="black" stroke-width="1.5" x1="380" x2="390" y1="230" y2="230" /><line stroke="black" stroke-width="1.5" x1="400" x2="410" y1="230" y2="230" /><line stroke="black" stroke-width="1.5" x1="420" x2="430" y1="230" y2="230" /><line stroke="black" stroke-width="1.5" x1="440" x2="450" y1="230" y2="230" /><line stroke="black" stroke-width="1.5" x1="460" x2="470" y1="230" y2="230" /><line stroke="black" stroke-width="1.5" x1="480" x2="490" y1="230" y2="230" /><line stroke="black" stroke-width="1.5" x1="500" x2="510" y1="230" y2="230" /><line stroke="black" stroke-width="1.5" x1="520" x2="530" y1="230" y2="230" /><line stroke="black" stroke-width="1.5" x1="540" x2="550" y1="230" y2="230" /><line stroke="black" stroke-width="1.5" x1="560" x2="570" y1="230" y2="230" /><text fill="black" font-family="Verdana" font-size="22.5" x="30" y="240">3</text><line stroke="black" stroke-width="1.5" x1="80" x2="90" y1="270" y2="270" /><line stroke="black" stroke-width="1.5" x1="100" x2="110" y1="270" y2="270" /><line stroke="black" stroke-width="1.5" x1="120" x2="130" y1="270" y2="270" /><line stroke="black" stroke-width="1.5" x1="140" x2="150" y1="270" y2="270" /><line stroke="black" stroke-width="1.5" x1="160" x2="170" y1="270" y2="270" /><line stroke="black" stroke-width="1.5" x1="180" x2="190" y1="270" y2="270" /><line stroke="black" stroke-width="1.5" x1="200" x2="210" y1="270" y2="270" /><line stroke="black" stroke-width="1.5" x1="220" x2="230" y1="270" y2="270" /><line stroke="black" stroke-width="1.5" x1="240" x2="250" y1="270" y2="270" /><line stroke="black" stroke-width="1.5" x1="260" x2="270" y1="270" y2="270" /><line stroke="black" stroke-width="1.5" x1="280" x2="290" y1="270" y2="270" /><line stroke="black" stroke-width="1.5" x1="300" x2="310" y1="270" y2="270" /><line stroke="black" stroke-width="1.5" x1="320" x2="330" y1="270" y2="270" /><line stroke="black" stroke-width="1.5" x1="340" x2="350" y1="270" y2="270" /><line stroke="black" stroke-width="1.5" x1="360" x2="370" y1="270" y2="270" /><line stroke="black" stroke-width="1.5" x1="380" x2="390" y1="270" y2="270" /><line stroke="black" stroke-width="1.5" x1="400" x2="410" y1="270" y2="270" /><line stroke="black" stroke-width="1.5" x1="420" x2="430" y1="270" y2="270" /><line stroke="black" stroke-width="1.5" x1="440" x2="450" y1="270" y2="270" /><line stroke="black" stroke-width="1.5" x1="460" x2="470" y1="270" y2="270" /><line stroke="black" stroke-width="1.5" x1="480" x2="490" y1="270" y2="270" /><line stroke="black" stroke-width="1.5" x1="500" x2="510" y1="270" y2="270" /><line stroke="black" stroke-width="1.5" x1="520" x2="530" y1="270" y2="270" /><line stroke="black" stroke-width="1.5" x1="540" x2="550" y1="270" y2="270" /><line stroke="black" stroke-width="1.5" x1="560" x2="570" y1="270" y2="270" /><text fill="black" font-family="Verdana" font-size="22.5" x="30" y="280">4</text><line stroke="black" stroke-width="1.5" x1="80" x2="90" y1="310" y2="310" /><line stroke="black" stroke-width="1.5" x1="100" x2="110" y1="310" y2="310" /><line stroke="black" stroke-width="1.5" x1="120" x2="130" y1="310" y2="310" /><line stroke="black" stroke-width="1.5" x1="140" x2="150" y1="310" y2="310" /><line stroke="black" stroke-width="1.5" x1="160" x2="170" y1="310" y2="310" /><line stroke="black" stroke-width="1.5" x1="180" x2="190" y1="310" y2="310" /><line stroke="black" stroke-width="1.5" x1="200" x2="210" y1="310" y2="310" /><line stroke="black" stroke-width="1.5" x1="220" x2="230" y1="310" y2="310" /><line stroke="black" stroke-width="1.5" x1="240" x2="250" y1="310" y2="310" /><line stroke="black" stroke-width="1.5" x1="260" x2="270" y1="310" y2="310" /><line stroke="black" stroke-width="1.5" x1="280" x2="290" y1="310" y2="310" /><line stroke="black" stroke-width="1.5" x1="300" x2="310" y1="310" y2="310" /><line stroke="black" stroke-width="1.5" x1="320" x2="330" y1="310" y2="310" /><line stroke="black" stroke-width="1.5" x1="340" x2="350" y1="310" y2="310" /><line stroke="black" stroke-width="1.5" x1="360" x2="370" y1="310" y2="310" /><line stroke="black" stroke-width="1.5" x1="380" x2="390" y1="310" y2="310" /><line stroke="black" stroke-width="1.5" x1="400" x2="410" y1="310" y2="310" /><line stroke="black" stroke-width="1.5" x1="420" x2="430" y1="310" y2="310" /><line stroke="black" stroke-width="1.5" x1="440" x2="450" y1="310" y2="310" /><line stroke="black" stroke-width="1.5" x1="460" x2="470" y1="310" y2="310" /><line stroke="black" stroke-width="1.5" x1="480" x2="490" y1="310" y2="310" /><line stroke="black" stroke-width="1.5" x1="500" x2="510" y1="310" y2="310" /><line stroke="black" stroke-width="1.5" x1="520" x2="530" y1="310" y2="310" /><line stroke="black" stroke-width="1.5" x1="540" x2="550" y1="310" y2="310" /><line stroke="black" stroke-width="1.5" x1="560" x2="570" y1="310" y2="310" /><text fill="black" font-family="Verdana" font-size="22.5" x="30" y="320">5</text><line stroke="black" stroke-width="1.5" x1="80" x2="90" y1="350" y2="350" /><line stroke="black" stroke-width="1.5" x1="100" x2="110" y1="350" y2="350" /><line stroke="black" stroke-width="1.5" x1="120" x2="130" y1="350" y2="350" /><line stroke="black" stroke-width="1.5" x1="140" x2="150" y1="350" y2="350" /><line stroke="black" stroke-width="1.5" x1="160" x2="170" y1="350" y2="350" /><line stroke="black" stroke-width="1.5" x1="180" x2="190" y1="350" y2="350" /><line stroke="black" stroke-width="1.5" x1="200" x2="210" y1="350" y2="350" /><line stroke="black" stroke-width="1.5" x1="220" x2="230" y1="350" y2="350" /><line stroke="black" stroke-width="1.5" x1="240" x2="250" y1="350" y2="350" /><line stroke="black" stroke-width="1.5" x1="260" x2="270" y1="350" y2="350" /><line stroke="black" stroke-width="1.5" x1="280" x2="290" y1="350" y2="350" /><line stroke="black" stroke-width="1.5" x1="300" x2="310" y1="350" y2="350" /><line stroke="black" stroke-width="1.5" x1="320" x2="330" y1="350" y2="350" /><line stroke="black" stroke-width="1.5" x1="340" x2="350" y1="350" y2="350" /><line stroke="black" stroke-width="1.5" x1="360" x2="370" y1="350" y2="350" /><line stroke="black" stroke-width="1.5" x1="380" x2="390" y1="350" y2="350" /><line stroke="black" stroke-width="1.5" x1="400" x2="410" y1="350" y2="350" /><line stroke="black" stroke-width="1.5" x1="420" x2="430" y1="350" y2="350" /><line stroke="black" stroke-width="1.5" x1="440" x2="450" y1="350" y2="350" /><line stroke="black" stroke-width="1.5" x1="460" x2="470" y1="350" y2="350" /><line stroke="black" stroke-width="1.5" x1="480" x2="490" y1="350" y2="350" /><line stroke="black" stroke-width="1.5" x1="500" x2="510" y1="350" y2="350" /><line stroke="black" stroke-width="1.5" x1="520" x2="530" y1="350" y2="350" /><line stroke="black" stroke-width="1.5" x1="540" x2="550" y1="350" y2="350" /><line stroke="black" stroke-width="1.5" x1="560" x2="570" y1="350" y2="350" /><text fill="black" font-family="Verdana" font-size="22.5" x="30" y="360">6</text><line stroke="black" stroke-width="1.5" x1="80" x2="90" y1="390" y2="390" /><line stroke="black" stroke-width="1.5" x1="100" x2="110" y1="390" y2="390" /><line stroke="black" stroke-width="1.5" x1="120" x2="130" y1="390" y2="390" /><line stroke="black" stroke-width="1.5" x1="140" x2="150" y1="390" y2="390" /><line stroke="black" stroke-width="1.5" x1="160" x2="170" y1="390" y2="390" /><line stroke="black" stroke-width="1.5" x1="180" x2="190" y1="390" y2="390" /><line stroke="black" stroke-width="1.5" x1="200" x2="210" y1="390" y2="390" /><line stroke="black" stroke-width="1.5" x1="220" x2="230" y1="390" y2="390" /><line stroke="black" stroke-width="1.5" x1="240" x2="250" y1="390" y2="390" /><line stroke="black" stroke-width="1.5" x1="260" x2="270" y1="390" y2="390" /><line stroke="black" stroke-width="1.5" x1="280" x2="290" y1="390" y2="390" /><line stroke="black" stroke-width="1.5" x1="300" x2="310" y1="390" y2="390" /><line stroke="black" stroke-width="1.5" x1="320" x2="330" y1="390" y2="390" /><line stroke="black" stroke-width="1.5" x1="340" x2="350" y1="390" y2="390" /><line stroke="black" stroke-width="1.5" x1="360" x2="370" y1="390" y2="390" /><line stroke="black" stroke-width="1.5" x1="380" x2="390" y1="390" y2="390" /><line stroke="black" stroke-width="1.5" x1="400" x2="410" y1="390" y2="390" /><line stroke="black" stroke-width="1.5" x1="420" x2="430" y1="390" y2="390" /><line stroke="black" stroke-width="1.5" x1="440" x2="450" y1="390" y2="390" /><line stroke="black" stroke-width="1.5" x1="460" x2="470" y1="390" y2="390" /><line stroke="black" stroke-width="1.5" x1="480" x2="490" y1="390" y2="390" /><line stroke="black" stroke-width="1.5" x1="500" x2="510" y1="390" y2="390" /><line stroke="black" stroke-width="1.5" x1="520" x2="530" y1="390" y2="390" /><line stroke="black" stroke-width="1.5" x1="540" x2="550" y1="390" y2="390" /><line stroke="black" stroke-width="1.5" x1="560" x2="570" y1="390" y2="390" /><text fill="black" font-family="Verdana" font-size="22.5" x="30" y="400">7</text><line stroke="black" stroke-width="1.5" x1="80" x2="90" y1="430" y2="430" /><line stroke="black" stroke-width="1.5" x1="100" x2="110" y1="430" y2="430" /><line stroke="black" stroke-width="1.5" x1="120" x2="130" y1="430" y2="430" /><line stroke="black" stroke-width="1.5" x1="140" x2="150" y1="430" y2="430" /><line stroke="black" stroke-width="1.5" x1="160" x2="170" y1="430" y2="430" /><line stroke="black" stroke-width="1.5" x1="180" x2="190" y1="430" y2="430" /><line stroke="black" stroke-width="1.5" x1="200" x2="210" y1="430" y2="430" /><line stroke="black" stroke-width="1.5" x1="220" x2="230" y1="430" y2="430" /><line stroke="black" stroke-width="1.5" x1="240" x2="250" y1="430" y2="430" /><line stroke="black" stroke-width="1.5" x1="260" x2="270" y1="430" y2="430" /><line stroke="black" stroke-width="1.5" x1="280" x2="290" y1="430" y2="430" /><line stroke="black" stroke-width="1.5" x1="300" x2="310" y1="430" y2="430" /><line stroke="black" stroke-width="1.5" x1="320" x2="330" y1="430" y2="430" /><line stroke="black" stroke-width="1.5" x1="340" x2="350" y1="430" y2="430" /><line stroke="black" stroke-width="1.5" x1="360" x2="370" y1="430" y2="430" /><line stroke="black" stroke-width="1.5" x1="380" x2="390" y1="430" y2="430" /><line stroke="black" stroke-width="1.5" x1="400" x2="410" y1="430" y2="430" /><line stroke="black" stroke-width="1.5" x1="420" x2="430" y1="430" y2="430" /><line stroke="black" stroke-width="1.5" x1="440" x2="450" y1="430" y2="430" /><line stroke="black" stroke-width="1.5" x1="460" x2="470" y1="430" y2="430" /><line stroke="black" stroke-width="1.5" x1="480" x2="490" y1="430" y2="430" /><line stroke="black" stroke-width="1.5" x1="500" x2="510" y1="430" y2="430" /><line stroke="black" stroke-width="1.5" x1="520" x2="530" y1="430" y2="430" /><line stroke="black" stroke-width="1.5" x1="540" x2="550" y1="430" y2="430" /><line stroke="black" stroke-width="1.5" x1="560" x2="570" y1="430" y2="430" /><text fill="black" font-family="Verdana" font-size="22.5" x="30" y="440">8</text><line stroke="black" stroke-width="1.5" x1="80" x2="90" y1="470" y2="470" /><line stroke="black" stroke-width="1.5" x1="100" x2="110" y1="470" y2="470" /><line stroke="black" stroke-width="1.5" x1="120" x2="130" y1="470" y2="470" /><line stroke="black" stroke-width="1.5" x1="140" x2="150" y1="470" y2="470" /><line stroke="black" stroke-width="1.5" x1="160" x2="170" y1="470" y2="470" /><line stroke="black" stroke-width="1.5" x1="180" x2="190" y1="470" y2="470" /><line stroke="black" stroke-width="1.5" x1="200" x2="210" y1="470" y2="470" /><line stroke="black" stroke-width="1.5" x1="220" x2="230" y1="470" y2="470" /><line stroke="black" stroke-width="1.5" x1="240" x2="250" y1="470" y2="470" /><line stroke="black" stroke-width="1.5" x1="260" x2="270" y1="470" y2="470" /><line stroke="black" stroke-width="1.5" x1="280" x2="290" y1="470" y2="470" /><line stroke="black" stroke-width="1.5" x1="300" x2="310" y1="470" y2="470" /><line stroke="black" stroke-width="1.5" x1="320" x2="330" y1="470" y2="470" /><line stroke="black" stroke-width="1.5" x1="340" x2="350" y1="470" y2="470" /><line stroke="black" stroke-width="1.5" x1="360" x2="370" y1="470" y2="470" /><line stroke="black" stroke-width="1.5" x1="380" x2="390" y1="470" y2="470" /><line stroke="black" stroke-width="1.5" x1="400" x2="410" y1="470" y2="470" /><line stroke="black" stroke-width="1.5" x1="420" x2="430" y1="470" y2="470" /><line stroke="black" stroke-width="1.5" x1="440" x2="450" y1="470" y2="470" /><line stroke="black" stroke-width="1.5" x1="460" x2="470" y1="470" y2="470" /><line stroke="black" stroke-width="1.5" x1="480" x2="490" y1="470" y2="470" /><line stroke="black" stroke-width="1.5" x1="500" x2="510" y1="470" y2="470" /><line stroke="black" stroke-width="1.5" x1="520" x2="530" y1="470" y2="470" /><line stroke="black" stroke-width="1.5" x1="540" x2="550" y1="470" y2="470" /><line stroke="black" stroke-width="1.5" x1="560" x2="570" y1="470" y2="470" /><text fill="black" font-family="Verdana" font-size="22.5" x="30" y="480">9</text><image height="5.295" width="6.0" x="630" xlink:href="arrow-drawing-1.png" y="275.0" /><line stroke="black" stroke-width="1.5" x1="800" x2="810" y1="110" y2="110" /><line stroke="black" stroke-width="1.5" x1="820" x2="830" y1="110" y2="110" /><line stroke="black" stroke-width="1.5" x1="840" x2="850" y1="110" y2="110" /><line stroke="black" stroke-width="1.5" x1="860" x2="870" y1="110" y2="110" /><line stroke="black" stroke-width="1.5" x1="880" x2="890" y1="110" y2="110" /><line stroke="black" stroke-width="1.5" x1="900" x2="910" y1="110" y2="110" /><line stroke="black" stroke-width="1.5" x1="920" x2="930" y1="110" y2="110" /><line stroke="black" stroke-width="1.5" x1="940" x2="950" y1="110" y2="110" /><line stroke="black" stroke-width="1.5" x1="960" x2="970" y1="110" y2="110" /><line stroke="black" stroke-width="1.5" x1="980" x2="990" y1="110" y2="110" /><line stroke="black" stroke-width="1.5" x1="1000" x2="1010" y1="110" y2="110" /><line stroke="black" stroke-width="1.5" x1="1020" x2="1030" y1="110" y2="110" /><line stroke="black" stroke-width="1.5" x1="1040" x2="1050" y1="110" y2="110" /><line stroke="black" stroke-width="1.5" x1="1060" x2="1070" y1="110" y2="110" /><line stroke="black" stroke-width="1.5" x1="1080" x2="1090" y1="110" y2="110" /><line stroke="black" stroke-width="1.5" x1="1100" x2="1110" y1="110" y2="110" /><line stroke="black" stroke-width="1.5" x1="1120" x2="1130" y1="110" y2="110" /><line stroke="black" stroke-width="1.5" x1="1140" x2="1150" y1="110" y2="110" /><line stroke="black" stroke-width="1.5" x1="1160" x2="1170" y1="110" y2="110" /><line stroke="black" stroke-width="1.5" x1="1180" x2="1190" y1="110" y2="110" /><line stroke="black" stroke-width="1.5" x1="1200" x2="1210" y1="110" y2="110" /><line stroke="black" stroke-width="1.5" x1="1220" x2="1230" y1="110" y2="110" /><line stroke="black" stroke-width="1.5" x1="1240" x2="1250" y1="110" y2="110" /><line stroke="black" stroke-width="1.5" x1="1260" x2="1270" y1="110" y2="110" /><line stroke="black" stroke-width="1.5" x1="1280" x2="1290" y1="110" y2="110" /><text fill="black" font-family="Verdana" font-size="22.5" x="750" y="120">0</text><line stroke="black" stroke-width="1.5" x1="800" x2="810" y1="150" y2="150" /><line stroke="black" stroke-width="1.5" x1="820" x2="830" y1="150" y2="150" /><line stroke="black" stroke-width="1.5" x1="840" x2="850" y1="150" y2="150" /><line stroke="black" stroke-width="1.5" x1="860" x2="870" y1="150" y2="150" /><line stroke="black" stroke-width="1.5" x1="880" x2="890" y1="150" y2="150" /><line stroke="black" stroke-width="1.5" x1="900" x2="910" y1="150" y2="150" /><line stroke="black" stroke-width="1.5" x1="920" x2="930" y1="150" y2="150" /><line stroke="black" stroke-width="1.5" x1="940" x2="950" y1="150" y2="150" /><line stroke="black" stroke-width="1.5" x1="960" x2="970" y1="150" y2="150" /><line stroke="black" stroke-width="1.5" x1="980" x2="990" y1="150" y2="150" /><line stroke="black" stroke-width="1.5" x1="1000" x2="1010" y1="150" y2="150" /><line stroke="black" stroke-width="1.5" x1="1020" x2="1030" y1="150" y2="150" /><line stroke="black" stroke-width="1.5" x1="1040" x2="1050" y1="150" y2="150" /><line stroke="black" stroke-width="1.5" x1="1060" x2="1070" y1="150" y2="150" /><line stroke="black" stroke-width="1.5" x1="1080" x2="1090" y1="150" y2="150" /><line stroke="black" stroke-width="1.5" x1="1100" x2="1110" y1="150" y2="150" /><line stroke="black" stroke-width="1.5" x1="1120" x2="1130" y1="150" y2="150" /><line stroke="black" stroke-width="1.5" x1="1140" x2="1150" y1="150" y2="150" /><line stroke="black" stroke-width="1.5" x1="1160" x2="1170" y1="150" y2="150" /><line stroke="black" stroke-width="1.5" x1="1180" x2="1190" y1="150" y2="150" /><line stroke="black" stroke-width="1.5" x1="1200" x2="1210" y1="150" y2="150" /><line stroke="black" stroke-width="1.5" x1="1220" x2="1230" y1="150" y2="150" /><line stroke="black" stroke-width="1.5" x1="1240" x2="1250" y1="150" y2="150" /><line stroke="black" stroke-width="1.5" x1="1260" x2="1270" y1="150" y2="150" /><line stroke="black" stroke-width="1.5" x1="1280" x2="1290" y1="150" y2="150" /><text fill="black" font-family="Verdana" font-size="22.5" x="750" y="160">6</text><line stroke="black" stroke-width="1.5" x1="800" x2="810" y1="190" y2="190" /><line stroke="black" stroke-width="1.5" x1="820" x2="830" y1="190" y2="190" /><line stroke="black" stroke-width="1.5" x1="840" x2="850" y1="190" y2="190" /><line stroke="black" stroke-width="1.5" x1="860" x2="870" y1="190" y2="190" /><line stroke="black" stroke-width="1.5" x1="880" x2="890" y1="190" y2="190" /><line stroke="black" stroke-width="1.5" x1="900" x2="910" y1="190" y2="190" /><line stroke="black" stroke-width="1.5" x1="920" x2="930" y1="190" y2="190" /><line stroke="black" stroke-width="1.5" x1="940" x2="950" y1="190" y2="190" /><line stroke="black" stroke-width="1.5" x1="960" x2="970" y1="190" y2="190" /><line stroke="black" stroke-width="1.5" x1="980" x2="990" y1="190" y2="190" /><line stroke="black" stroke-width="1.5" x1="1000" x2="1010" y1="190" y2="190" /><line stroke="black" stroke-width="1.5" x1="1020" x2="1030" y1="190" y2="190" /><line stroke="black" stroke-width="1.5" x1="1040" x2="1050" y1="190" y2="190" /><line stroke="black" stroke-width="1.5" x1="1060" x2="1070" y1="190" y2="190" /><line stroke="black" stroke-width="1.5" x1="1080" x2="1090" y1="190" y2="190" /><line stroke="black" stroke-width="1.5" x1="1100" x2="1110" y1="190" y2="190" /><line stroke="black" stroke-width="1.5" x1="1120" x2="1130" y1="190" y2="190" /><line stroke="black" stroke-width="1.5" x1="1140" x2="1150" y1="190" y2="190" /><line stroke="black" stroke-width="1.5" x1="1160" x2="1170" y1="190" y2="190" /><line stroke="black" stroke-width="1.5" x1="1180" x2="1190" y1="190" y2="190" /><line stroke="black" stroke-width="1.5" x1="1200" x2="1210" y1="190" y2="190" /><line stroke="black" stroke-width="1.5" x1="1220" x2="1230" y1="190" y2="190" /><line stroke="black" stroke-width="1.5" x1="1240" x2="1250" y1="190" y2="190" /><line stroke="black" stroke-width="1.5" x1="1260" x2="1270" y1="190" y2="190" /><line stroke="black" stroke-width="1.5" x1="1280" x2="1290" y1="190" y2="190" /><text fill="black" font-family="Verdana" font-size="22.5" x="750" y="200">8</text><line stroke="black" stroke-width="1.5" x1="800" x2="810" y1="230" y2="230" /><line stroke="black" stroke-width="1.5" x1="820" x2="830" y1="230" y2="230" /><line stroke="black" stroke-width="1.5" x1="840" x2="850" y1="230" y2="230" /><line stroke="black" stroke-width="1.5" x1="860" x2="870" y1="230" y2="230" /><line stroke="black" stroke-width="1.5" x1="880" x2="890" y1="230" y2="230" /><line stroke="black" stroke-width="1.5" x1="900" x2="910" y1="230" y2="230" /><line stroke="black" stroke-width="1.5" x1="920" x2="930" y1="230" y2="230" /><line stroke="black" stroke-width="1.5" x1="940" x2="950" y1="230" y2="230" /><line stroke="black" stroke-width="1.5" x1="960" x2="970" y1="230" y2="230" /><line stroke="black" stroke-width="1.5" x1="980" x2="990" y1="230" y2="230" /><line stroke="black" stroke-width="1.5" x1="1000" x2="1010" y1="230" y2="230" /><line stroke="black" stroke-width="1.5" x1="1020" x2="1030" y1="230" y2="230" /><line stroke="black" stroke-width="1.5" x1="1040" x2="1050" y1="230" y2="230" /><line stroke="black" stroke-width="1.5" x1="1060" x2="1070" y1="230" y2="230" /><line stroke="black" stroke-width="1.5" x1="1080" x2="1090" y1="230" y2="230" /><line stroke="black" stroke-width="1.5" x1="1100" x2="1110" y1="230" y2="230" /><line stroke="black" stroke-width="1.5" x1="1120" x2="1130" y1="230" y2="230" /><line stroke="black" stroke-width="1.5" x1="1140" x2="1150" y1="230" y2="230" /><line stroke="black" stroke-width="1.5" x1="1160" x2="1170" y1="230" y2="230" /><line stroke="black" stroke-width="1.5" x1="1180" x2="1190" y1="230" y2="230" /><line stroke="black" stroke-width="1.5" x1="1200" x2="1210" y1="230" y2="230" /><line stroke="black" stroke-width="1.5" x1="1220" x2="1230" y1="230" y2="230" /><line stroke="black" stroke-width="1.5" x1="1240" x2="1250" y1="230" y2="230" /><line stroke="black" stroke-width="1.5" x1="1260" x2="1270" y1="230" y2="230" /><line stroke="black" stroke-width="1.5" x1="1280" x2="1290" y1="230" y2="230" /><text fill="black" font-family="Verdana" font-size="22.5" x="750" y="240">1</text><line stroke="black" stroke-width="1.5" x1="800" x2="810" y1="270" y2="270" /><line stroke="black" stroke-width="1.5" x1="820" x2="830" y1="270" y2="270" /><line stroke="black" stroke-width="1.5" x1="840" x2="850" y1="270" y2="270" /><line stroke="black" stroke-width="1.5" x1="860" x2="870" y1="270" y2="270" /><line stroke="black" stroke-width="1.5" x1="880" x2="890" y1="270" y2="270" /><line stroke="black" stroke-width="1.5" x1="900" x2="910" y1="270" y2="270" /><line stroke="black" stroke-width="1.5" x1="920" x2="930" y1="270" y2="270" /><line stroke="black" stroke-width="1.5" x1="940" x2="950" y1="270" y2="270" /><line stroke="black" stroke-width="1.5" x1="960" x2="970" y1="270" y2="270" /><line stroke="black" stroke-width="1.5" x1="980" x2="990" y1="270" y2="270" /><line stroke="black" stroke-width="1.5" x1="1000" x2="1010" y1="270" y2="270" /><line stroke="black" stroke-width="1.5" x1="1020" x2="1030" y1="270" y2="270" /><line stroke="black" stroke-width="1.5" x1="1040" x2="1050" y1="270" y2="270" /><line stroke="black" stroke-width="1.5" x1="1060" x2="1070" y1="270" y2="270" /><line stroke="black" stroke-width="1.5" x1="1080" x2="1090" y1="270" y2="270" /><line stroke="black" stroke-width="1.5" x1="1100" x2="1110" y1="270" y2="270" /><line stroke="black" stroke-width="1.5" x1="1120" x2="1130" y1="270" y2="270" /><line stroke="black" stroke-width="1.5" x1="1140" x2="1150" y1="270" y2="270" /><line stroke="black" stroke-width="1.5" x1="1160" x2="1170" y1="270" y2="270" /><line stroke="black" stroke-width="1.5" x1="1180" x2="1190" y1="270" y2="270" /><line stroke="black" stroke-width="1.5" x1="1200" x2="1210" y1="270" y2="270" /><line stroke="black" stroke-width="1.5" x1="1220" x2="1230" y1="270" y2="270" /><line stroke="black" stroke-width="1.5" x1="1240" x2="1250" y1="270" y2="270" /><line stroke="black" stroke-width="1.5" x1="1260" x2="1270" y1="270" y2="270" /><line stroke="black" stroke-width="1.5" x1="1280" x2="1290" y1="270" y2="270" /><text fill="black" font-family="Verdana" font-size="22.5" x="750" y="280">7</text><line stroke="black" stroke-width="1.5" x1="800" x2="810" y1="310" y2="310" /><line stroke="black" stroke-width="1.5" x1="820" x2="830" y1="310" y2="310" /><line stroke="black" stroke-width="1.5" x1="840" x2="850" y1="310" y2="310" /><line stroke="black" stroke-width="1.5" x1="860" x2="870" y1="310" y2="310" /><line stroke="black" stroke-width="1.5" x1="880" x2="890" y1="310" y2="310" /><line stroke="black" stroke-width="1.5" x1="900" x2="910" y1="310" y2="310" /><line stroke="black" stroke-width="1.5" x1="920" x2="930" y1="310" y2="310" /><line stroke="black" stroke-width="1.5" x1="940" x2="950" y1="310" y2="310" /><line stroke="black" stroke-width="1.5" x1="960" x2="970" y1="310" y2="310" /><line stroke="black" stroke-width="1.5" x1="980" x2="990" y1="310" y2="310" /><line stroke="black" stroke-width="1.5" x1="1000" x2="1010" y1="310" y2="310" /><line stroke="black" stroke-width="1.5" x1="1020" x2="1030" y1="310" y2="310" /><line stroke="black" stroke-width="1.5" x1="1040" x2="1050" y1="310" y2="310" /><line stroke="black" stroke-width="1.5" x1="1060" x2="1070" y1="310" y2="310" /><line stroke="black" stroke-width="1.5" x1="1080" x2="1090" y1="310" y2="310" /><line stroke="black" stroke-width="1.5" x1="1100" x2="1110" y1="310" y2="310" /><line stroke="black" stroke-width="1.5" x1="1120" x2="1130" y1="310" y2="310" /><line stroke="black" stroke-width="1.5" x1="1140" x2="1150" y1="310" y2="310" /><line stroke="black" stroke-width="1.5" x1="1160" x2="1170" y1="310" y2="310" /><line stroke="black" stroke-width="1.5" x1="1180" x2="1190" y1="310" y2="310" /><line stroke="black" stroke-width="1.5" x1="1200" x2="1210" y1="310" y2="310" /><line stroke="black" stroke-width="1.5" x1="1220" x2="1230" y1="310" y2="310" /><line stroke="black" stroke-width="1.5" x1="1240" x2="1250" y1="310" y2="310" /><line stroke="black" stroke-width="1.5" x1="1260" x2="1270" y1="310" y2="310" /><line stroke="black" stroke-width="1.5" x1="1280" x2="1290" y1="310" y2="310" /><text fill="black" font-family="Verdana" font-size="22.5" x="750" y="320">5</text><line stroke="black" stroke-width="1.5" x1="800" x2="810" y1="350" y2="350" /><line stroke="black" stroke-width="1.5" x1="820" x2="830" y1="350" y2="350" /><line stroke="black" stroke-width="1.5" x1="840" x2="850" y1="350" y2="350" /><line stroke="black" stroke-width="1.5" x1="860" x2="870" y1="350" y2="350" /><line stroke="black" stroke-width="1.5" x1="880" x2="890" y1="350" y2="350" /><line stroke="black" stroke-width="1.5" x1="900" x2="910" y1="350" y2="350" /><line stroke="black" stroke-width="1.5" x1="920" x2="930" y1="350" y2="350" /><line stroke="black" stroke-width="1.5" x1="940" x2="950" y1="350" y2="350" /><line stroke="black" stroke-width="1.5" x1="960" x2="970" y1="350" y2="350" /><line stroke="black" stroke-width="1.5" x1="980" x2="990" y1="350" y2="350" /><line stroke="black" stroke-width="1.5" x1="1000" x2="1010" y1="350" y2="350" /><line stroke="black" stroke-width="1.5" x1="1020" x2="1030" y1="350" y2="350" /><line stroke="black" stroke-width="1.5" x1="1040" x2="1050" y1="350" y2="350" /><line stroke="black" stroke-width="1.5" x1="1060" x2="1070" y1="350" y2="350" /><line stroke="black" stroke-width="1.5" x1="1080" x2="1090" y1="350" y2="350" /><line stroke="black" stroke-width="1.5" x1="1100" x2="1110" y1="350" y2="350" /><line stroke="black" stroke-width="1.5" x1="1120" x2="1130" y1="350" y2="350" /><line stroke="black" stroke-width="1.5" x1="1140" x2="1150" y1="350" y2="350" /><line stroke="black" stroke-width="1.5" x1="1160" x2="1170" y1="350" y2="350" /><line stroke="black" stroke-width="1.5" x1="1180" x2="1190" y1="350" y2="350" /><line stroke="black" stroke-width="1.5" x1="1200" x2="1210" y1="350" y2="350" /><line stroke="black" stroke-width="1.5" x1="1220" x2="1230" y1="350" y2="350" /><line stroke="black" stroke-width="1.5" x1="1240" x2="1250" y1="350" y2="350" /><line stroke="black" stroke-width="1.5" x1="1260" x2="1270" y1="350" y2="350" /><line stroke="black" stroke-width="1.5" x1="1280" x2="1290" y1="350" y2="350" /><text fill="black" font-family="Verdana" font-size="22.5" x="750" y="360">9</text><line stroke="black" stroke-width="1.5" x1="800" x2="810" y1="390" y2="390" /><line stroke="black" stroke-width="1.5" x1="820" x2="830" y1="390" y2="390" /><line stroke="black" stroke-width="1.5" x1="840" x2="850" y1="390" y2="390" /><line stroke="black" stroke-width="1.5" x1="860" x2="870" y1="390" y2="390" /><line stroke="black" stroke-width="1.5" x1="880" x2="890" y1="390" y2="390" /><line stroke="black" stroke-width="1.5" x1="900" x2="910" y1="390" y2="390" /><line stroke="black" stroke-width="1.5" x1="920" x2="930" y1="390" y2="390" /><line stroke="black" stroke-width="1.5" x1="940" x2="950" y1="390" y2="390" /><line stroke="black" stroke-width="1.5" x1="960" x2="970" y1="390" y2="390" /><line stroke="black" stroke-width="1.5" x1="980" x2="990" y1="390" y2="390" /><line stroke="black" stroke-width="1.5" x1="1000" x2="1010" y1="390" y2="390" /><line stroke="black" stroke-width="1.5" x1="1020" x2="1030" y1="390" y2="390" /><line stroke="black" stroke-width="1.5" x1="1040" x2="1050" y1="390" y2="390" /><line stroke="black" stroke-width="1.5" x1="1060" x2="1070" y1="390" y2="390" /><line stroke="black" stroke-width="1.5" x1="1080" x2="1090" y1="390" y2="390" /><line stroke="black" stroke-width="1.5" x1="1100" x2="1110" y1="390" y2="390" /><line stroke="black" stroke-width="1.5" x1="1120" x2="1130" y1="390" y2="390" /><line stroke="black" stroke-width="1.5" x1="1140" x2="1150" y1="390" y2="390" /><line stroke="black" stroke-width="1.5" x1="1160" x2="1170" y1="390" y2="390" /><line stroke="black" stroke-width="1.5" x1="1180" x2="1190" y1="390" y2="390" /><line stroke="black" stroke-width="1.5" x1="1200" x2="1210" y1="390" y2="390" /><line stroke="black" stroke-width="1.5" x1="1220" x2="1230" y1="390" y2="390" /><line stroke="black" stroke-width="1.5" x1="1240" x2="1250" y1="390" y2="390" /><line stroke="black" stroke-width="1.5" x1="1260" x2="1270" y1="390" y2="390" /><line stroke="black" stroke-width="1.5" x1="1280" x2="1290" y1="390" y2="390" /><text fill="black" font-family="Verdana" font-size="22.5" x="750" y="400">4</text><line stroke="black" stroke-width="1.5" x1="800" x2="810" y1="430" y2="430" /><line stroke="black" stroke-width="1.5" x1="820" x2="830" y1="430" y2="430" /><line stroke="black" stroke-width="1.5" x1="840" x2="850" y1="430" y2="430" /><line stroke="black" stroke-width="1.5" x1="860" x2="870" y1="430" y2="430" /><line stroke="black" stroke-width="1.5" x1="880" x2="890" y1="430" y2="430" /><line stroke="black" stroke-width="1.5" x1="900" x2="910" y1="430" y2="430" /><line stroke="black" stroke-width="1.5" x1="920" x2="930" y1="430" y2="430" /><line stroke="black" stroke-width="1.5" x1="940" x2="950" y1="430" y2="430" /><line stroke="black" stroke-width="1.5" x1="960" x2="970" y1="430" y2="430" /><line stroke="black" stroke-width="1.5" x1="980" x2="990" y1="430" y2="430" /><line stroke="black" stroke-width="1.5" x1="1000" x2="1010" y1="430" y2="430" /><line stroke="black" stroke-width="1.5" x1="1020" x2="1030" y1="430" y2="430" /><line stroke="black" stroke-width="1.5" x1="1040" x2="1050" y1="430" y2="430" /><line stroke="black" stroke-width="1.5" x1="1060" x2="1070" y1="430" y2="430" /><line stroke="black" stroke-width="1.5" x1="1080" x2="1090" y1="430" y2="430" /><line stroke="black" stroke-width="1.5" x1="1100" x2="1110" y1="430" y2="430" /><line stroke="black" stroke-width="1.5" x1="1120" x2="1130" y1="430" y2="430" /><line stroke="black" stroke-width="1.5" x1="1140" x2="1150" y1="430" y2="430" /><line stroke="black" stroke-width="1.5" x1="1160" x2="1170" y1="430" y2="430" /><line stroke="black" stroke-width="1.5" x1="1180" x2="1190" y1="430" y2="430" /><line stroke="black" stroke-width="1.5" x1="1200" x2="1210" y1="430" y2="430" /><line stroke="black" stroke-width="1.5" x1="1220" x2="1230" y1="430" y2="430" /><line stroke="black" stroke-width="1.5" x1="1240" x2="1250" y1="430" y2="430" /><line stroke="black" stroke-width="1.5" x1="1260" x2="1270" y1="430" y2="430" /><line stroke="black" stroke-width="1.5" x1="1280" x2="1290" y1="430" y2="430" /><text fill="black" font-family="Verdana" font-size="22.5" x="750" y="440">3</text><line stroke="black" stroke-width="1.5" x1="800" x2="810" y1="470" y2="470" /><line stroke="black" stroke-width="1.5" x1="820" x2="830" y1="470" y2="470" /><line stroke="black" stroke-width="1.5" x1="840" x2="850" y1="470" y2="470" /><line stroke="black" stroke-width="1.5" x1="860" x2="870" y1="470" y2="470" /><line stroke="black" stroke-width="1.5" x1="880" x2="890" y1="470" y2="470" /><line stroke="black" stroke-width="1.5" x1="900" x2="910" y1="470" y2="470" /><line stroke="black" stroke-width="1.5" x1="920" x2="930" y1="470" y2="470" /><line stroke="black" stroke-width="1.5" x1="940" x2="950" y1="470" y2="470" /><line stroke="black" stroke-width="1.5" x1="960" x2="970" y1="470" y2="470" /><line stroke="black" stroke-width="1.5" x1="980" x2="990" y1="470" y2="470" /><line stroke="black" stroke-width="1.5" x1="1000" x2="1010" y1="470" y2="470" /><line stroke="black" stroke-width="1.5" x1="1020" x2="1030" y1="470" y2="470" /><line stroke="black" stroke-width="1.5" x1="1040" x2="1050" y1="470" y2="470" /><line stroke="black" stroke-width="1.5" x1="1060" x2="1070" y1="470" y2="470" /><line stroke="black" stroke-width="1.5" x1="1080" x2="1090" y1="470" y2="470" /><line stroke="black" stroke-width="1.5" x1="1100" x2="1110" y1="470" y2="470" /><line stroke="black" stroke-width="1.5" x1="1120" x2="1130" y1="470" y2="470" /><line stroke="black" stroke-width="1.5" x1="1140" x2="1150" y1="470" y2="470" /><line stroke="black" stroke-width="1.5" x1="1160" x2="1170" y1="470" y2="470" /><line stroke="black" stroke-width="1.5" x1="1180" x2="1190" y1="470" y2="470" /><line stroke="black" stroke-width="1.5" x1="1200" x2="1210" y1="470" y2="470" /><line stroke="black" stroke-width="1.5" x1="1220" x2="1230" y1="470" y2="470" /><line stroke="black" stroke-width="1.5" x1="1240" x2="1250" y1="470" y2="470" /><line stroke="black" stroke-width="1.5" x1="1260" x2="1270" y1="470" y2="470" /><line stroke="black" stroke-width="1.5" x1="1280" x2="1290" y1="470" y2="470" /><text fill="black" font-family="Verdana" font-size="22.5" x="750" y="480">2</text><path d="m 120 150 Q 231.340206185567 270.0 120 390" fill="none" stroke="black" stroke-width="2.5" /><circle cx="120" cy="150" fill="black" r="4" stroke="black" stroke-width="1" /><circle cx="120" cy="390" fill="black" r="4" stroke="black" stroke-width="1" /><path d="m 120 190 Q 156.36363636363637 230.0 120 270" fill="none" stroke="black" stroke-width="2.5" /><circle cx="120" cy="190" fill="black" r="4" stroke="black" stroke-width="1" /><circle cx="120" cy="270" fill="black" r="4" stroke="black" stroke-width="1" /><path d="m 120 190 Q 231.340206185567 310.0 120 430" fill="none" stroke="black" stroke-width="2.5" /><circle cx="120" cy="190" fill="black" r="4" stroke="black" stroke-width="1" /><circle cx="120" cy="430" fill="black" r="4" stroke="black" stroke-width="1" /><path d="m 120 230 Q 220.0 330.0 120 430" fill="none" stroke="black" stroke-width="2.5" /><circle cx="120" cy="230" fill="black" r="4" stroke="black" stroke-width="1" /><circle cx="120" cy="430" fill="black" r="4" stroke="black" stroke-width="1" /><path d="m 120 270 Q 131.11111111111111 290.0 120 310" fill="none" stroke="black" stroke-width="2.5" /><circle cx="120" cy="270" fill="black" r="4" stroke="black" stroke-width="1" /><circle cx="120" cy="310" fill="black" r="4" stroke="black" stroke-width="1" /><path d="m 120 310 Q 156.36363636363637 350.0 120 390" fill="none" stroke="black" stroke-width="2.5" /><circle cx="120" cy="310" fill="black" r="4" stroke="black" stroke-width="1" /><circle cx="120" cy="390" fill="black" r="4" stroke="black" stroke-width="1" /><path d="m 120 390 Q 131.11111111111111 410.0 120 430" fill="none" stroke="black" stroke-width="2.5" /><circle cx="120" cy="390" fill="black" r="4" stroke="black" stroke-width="1" /><circle cx="120" cy="430" fill="black" r="4" stroke="black" stroke-width="1" /><path d="m 120 390 Q 156.36363636363637 430.0 120 470" fill="none" stroke="black" stroke-width="2.5" /><circle cx="120" cy="390" fill="black" r="4" stroke="black" stroke-width="1" /><circle cx="120" cy="470" fill="black" r="4" stroke="black" stroke-width="1" /><path d="m 220 150 Q 282.7906976744186 210.0 220 270" fill="none" stroke="black" stroke-width="2.5" /><circle cx="220" cy="150" fill="black" r="4" stroke="black" stroke-width="1" /><circle cx="220" cy="270" fill="black" r="4" stroke="black" stroke-width="1" /><path d="m 220 190 Q 304.2105263157895 270.0 220 350" fill="none" stroke="black" stroke-width="2.5" /><circle cx="220" cy="190" fill="black" r="4" stroke="black" stroke-width="1" /><circle cx="220" cy="350" fill="black" r="4" stroke="black" stroke-width="1" /><path d="m 220 430 Q 231.11111111111111 450.0 220 470" fill="none" stroke="black" stroke-width="2.5" /><circle cx="220" cy="430" fill="black" r="4" stroke="black" stroke-width="1" /><circle cx="220" cy="470" fill="black" r="4" stroke="black" stroke-width="1" /><path d="m 870 230 Q 881.1111111111111 250.0 870 270" fill="none" stroke="black" stroke-width="2.5" /><circle cx="870" cy="230" fill="black" r="4" stroke="black" stroke-width="1" /><circle cx="870" cy="270" fill="black" r="4" stroke="black" stroke-width="1" /><path d="m 870 470 Q 906.3636363636364 430.0 870 390" fill="none" stroke="black" stroke-width="2.5" /><circle cx="870" cy="470" fill="black" r="4" stroke="black" stroke-width="1" /><circle cx="870" cy="390" fill="black" r="4" stroke="black" stroke-width="1" /><path d="m 870 470 Q 989.5121951219512 330.0 870 190" fill="none" stroke="black" stroke-width="2.5" /><circle cx="870" cy="470" fill="black" r="4" stroke="black" stroke-width="1" /><circle cx="870" cy="190" fill="black" r="4" stroke="black" stroke-width="1" /><path d="m 870 430 Q 981.340206185567 310.0 870 190" fill="none" stroke="black" stroke-width="2.5" /><circle cx="870" cy="430" fill="black" r="4" stroke="black" stroke-width="1" /><circle cx="870" cy="190" fill="black" r="4" stroke="black" stroke-width="1" /><path d="m 870 390 Q 906.3636363636364 350.0 870 310" fill="none" stroke="black" stroke-width="2.5" /><circle cx="870" cy="390" fill="black" r="4" stroke="black" stroke-width="1" /><circle cx="870" cy="310" fill="black" r="4" stroke="black" stroke-width="1" /><path d="m 870 310 Q 881.1111111111111 290.0 870 270" fill="none" stroke="black" stroke-width="2.5" /><circle cx="870" cy="310" fill="black" r="4" stroke="black" stroke-width="1" /><circle cx="870" cy="270" fill="black" r="4" stroke="black" stroke-width="1" /><path d="m 870 270 Q 906.3636363636364 230.0 870 190" fill="none" stroke="black" stroke-width="2.5" /><circle cx="870" cy="270" fill="black" r="4" stroke="black" stroke-width="1" /><circle cx="870" cy="190" fill="black" r="4" stroke="black" stroke-width="1" /><path d="m 870 270 Q 906.3636363636364 310.0 870 350" fill="none" stroke="black" stroke-width="2.5" /><circle cx="870" cy="270" fill="black" r="4" stroke="black" stroke-width="1" /><circle cx="870" cy="350" fill="black" r="4" stroke="black" stroke-width="1" /><path d="m 970 230 Q 1054.2105263157894 310.0 970 390" fill="none" stroke="black" stroke-width="2.5" /><circle cx="970" cy="230" fill="black" r="4" stroke="black" stroke-width="1" /><circle cx="970" cy="390" fill="black" r="4" stroke="black" stroke-width="1" /><path d="m 970 470 Q 1095.4901960784314 310.0 970 150" fill="none" stroke="black" stroke-width="2.5" /><circle cx="970" cy="470" fill="black" r="4" stroke="black" stroke-width="1" /><circle cx="970" cy="150" fill="black" r="4" stroke="black" stroke-width="1" /><path d="m 970 190 Q 1054.2105263157894 270.0 970 350" fill="none" stroke="black" stroke-width="2.5" /><circle cx="970" cy="190" fill="black" r="4" stroke="black" stroke-width="1" /><circle cx="970" cy="350" fill="black" r="4" stroke="black" stroke-width="1" /></svg>