<?xml version="1.0" encoding="utf-8" ?>
<svg baseProfile="full" height="55" version="1.1" width="135" xmlns="http://www.w3.org/2000/svg" xmlns:ev="http://www.w3.org/2001/xml-events" xmlns:xlink="http://www.w3.org/1999/xlink"><defs /><text fill="black" font-family="Gill Sans, sans-serif" font-size="4" font-weight="100" x="3" y="5">Stream graph ordering</text><line stroke="black" stroke-width="0.15" x1="8" x2="9" y1="11" y2="11" /><line stroke="black" stroke-width="0.15" x1="10" x2="11" y1="11" y2="11" /><line stroke="black" stroke-width="0.15" x1="12" x2="13" y1="11" y2="11" /><line stroke="black" stroke-width="0.15" x1="14" x2="15" y1="11" y2="11" /><line stroke="black" stroke-width="0.15" x1="16" x2="17" y1="11" y2="11" /><line stroke="black" stroke-width="0.15" x1="18" x2="19" y1="11" y2="11" /><line stroke="black" stroke-width="0.15" x1="20" x2="21" y1="11" y2="11" /><line stroke="black" stroke-width="0.15" x1="22" x2="23" y1="11" y2="11" /><line stroke="black" stroke-width="0.15" x1="24" x2="25" y1="11" y2="11" /><line stroke="black" stroke-width="0.15" x1="26" x2="27" y1="11" y2="11" /><line stroke="black" stroke-width="0.15" x1="28" x2="29" y1="11" y2="11" /><line stroke="black" stroke-width="0.15" x1="30" x2="31" y1="11" y2="11" /><line stroke="black" stroke-width="0.15" x1="32" x2="33" y1="11" y2="11" /><line stroke="black" stroke-width="0.15" x1="34" x2="35" y1="11" y2="11" /><line stroke="black" stroke-width="0.15" x1="36" x2="37" y1="11" y2="11" /><line stroke="black" stroke-width="0.15" x1="38" x2="39" y1="11" y2="11" /><line stroke="black" stroke-width="0.15" x1="40" x2="41" y1="11" y2="11" /><line stroke="black" stroke-width="0.15" x1="42" x2="43" y1="11" y2="11" /><line stroke="black" stroke-width="0.15" x1="44" x2="45" y1="11" y2="11" /><line stroke="black" stroke-width="0.15" x1="46" x2="47" y1="11" y2="11" /><line stroke="black" stroke-width="0.15" x1="48" x2="49" y1="11" y2="11" /><line stroke="black" stroke-width="0.15" x1="50" x2="51" y1="11" y2="11" /><line stroke="black" stroke-width="0.15" x1="52" x2="53" y1="11" y2="11" /><line stroke="black" stroke-width="0.15" x1="54" x2="55" y1="11" y2="11" /><line stroke="black" stroke-width="0.15" x1="56" x2="57" y1="11" y2="11" /><text fill="black" font-family="Verdana" font-size="2.25" x="3" y="12">0</text><line stroke="black" stroke-width="0.15" x1="8" x2="9" y1="15" y2="15" /><line stroke="black" stroke-width="0.15" x1="10" x2="11" y1="15" y2="15" /><line stroke="black" stroke-width="0.15" x1="12" x2="13" y1="15" y2="15" /><line stroke="black" stroke-width="0.15" x1="14" x2="15" y1="15" y2="15" /><line stroke="black" stroke-width="0.15" x1="16" x2="17" y1="15" y2="15" /><line stroke="black" stroke-width="0.15" x1="18" x2="19" y1="15" y2="15" /><line stroke="black" stroke-width="0.15" x1="20" x2="21" y1="15" y2="15" /><line stroke="black" stroke-width="0.15" x1="22" x2="23" y1="15" y2="15" /><line stroke="black" stroke-width="0.15" x1="24" x2="25" y1="15" y2="15" /><line stroke="black" stroke-width="0.15" x1="26" x2="27" y1="15" y2="15" /><line stroke="black" stroke-width="0.15" x1="28" x2="29" y1="15" y2="15" /><line stroke="black" stroke-width="0.15" x1="30" x2="31" y1="15" y2="15" /><line stroke="black" stroke-width="0.15" x1="32" x2="33" y1="15" y2="15" /><line stroke="black" stroke-width="0.15" x1="34" x2="35" y1="15" y2="15" /><line stroke="black" stroke-width="0.15" x1="36" x2="37" y1="15" y2="15" /><line stroke="black" stroke-width="0.15" x1="38" x2="39" y1="15" y2="15" /><line stroke="black" stroke-width="0.15" x1="40" x2="41" y1="15" y2="15" /><line stroke="black" stroke-width="0.15" x1="42" x2="43" y1="15" y2="15" /><line stroke="black" stroke-width="0.15" x1="44" x2="45" y1="15" y2="15" /><line stroke="black" stroke-width="0.15" x1="46" x2="47" y1="15" y2="15" /><line stroke="black" stroke-width="0.15" x1="48" x2="49" y1="15" y2="15" /><line stroke="black" stroke-width="0.15" x1="50" x2="51" y1="15" y2="15" /><line stroke="black" stroke-width="0.15" x1="52" x2="53" y1="15" y2="15" /><line stroke="black" stroke-width="0.15" x1="54" x2="55" y1="15" y2="15" /><line stroke="black" stroke-width="0.15" x1="56" x2="57" y1="15" y2="15" /><text fill="black" font-family="Verdana" font-size="2.25" x="3" y="16">1</text><line stroke="black" stroke-width="0.15" x1="8" x2="9" y1="19" y2="19" /><line stroke="black" stroke-width="0.15" x1="10" x2="11" y1="19" y2="19" /><line stroke="black" stroke-width="0.15" x1="12" x2="13" y1="19" y2="19" /><line stroke="black" stroke-width="0.15" x1="14" x2="15" y1="19" y2="19" /><line stroke="black" stroke-width="0.15" x1="16" x2="17" y1="19" y2="19" /><line stroke="black" stroke-width="0.15" x1="18" x2="19" y1="19" y2="19" /><line stroke="black" stroke-width="0.15" x1="20" x2="21" y1="19" y2="19" /><line stroke="black" stroke-width="0.15" x1="22" x2="23" y1="19" y2="19" /><line stroke="black" stroke-width="0.15" x1="24" x2="25" y1="19" y2="19" /><line stroke="black" stroke-width="0.15" x1="26" x2="27" y1="19" y2="19" /><line stroke="black" stroke-width="0.15" x1="28" x2="29" y1="19" y2="19" /><line stroke="black" stroke-width="0.15" x1="30" x2="31" y1="19" y2="19" /><line stroke="black" stroke-width="0.15" x1="32" x2="33" y1="19" y2="19" /><line stroke="black" stroke-width="0.15" x1="34" x2="35" y1="19" y2="19" /><line stroke="black" stroke-width="0.15" x1="36" x2="37" y1="19" y2="19" /><line stroke="black" stroke-width="0.15" x1="38" x2="39" y1="19" y2="19" /><line stroke="black" stroke-width="0.15" x1="40" x2="41" y1="19" y2="19" /><line stroke="black" stroke-width="0.15" x1="42" x2="43" y1="19" y2="19" /><line stroke="black" stroke-width="0.15" x1="44" x2="45" y1="19" y2="19" /><line stroke="black" stroke-width="0.15" x1="46" x2="47" y1="19" y2="19" /><line stroke="black" stroke-width="0.15" x1="48" x2="49" y1="19" y2="19" /><line stroke="black" stroke-width="0.15" x1="50" x2="51" y1="19" y2="19" /><line stroke="black" stroke-width="0.15" x1="52" x2="53" y1="19" y2="19" /><line stroke="black" stroke-width="0.15" x1="54" x2="55" y1="19" y2="19" /><line stroke="black" stroke-width="0.15" x1="56" x2="57" y1="19" y2="19" /><text fill="black" font-family="Verdana" font-size="2.25" x="3" y="20">2</text><line stroke="black" stroke-width="0.15" x1="8" x2="9" y1="23" y2="23" /><line stroke="black" stroke-width="0.15" x1="10" x2="11" y1="23" y2="23" /><line stroke="black" stroke-width="0.15" x1="12" x2="13" y1="23" y2="23" /><line stroke="black" stroke-width="0.15" x1="14" x2="15" y1="23" y2="23" /><line stroke="black" stroke-width="0.15" x1="16" x2="17" y1="23" y2="23" /><line stroke="black" stroke-width="0.15" x1="18" x2="19" y1="23" y2="23" /><line stroke="black" stroke-width="0.15" x1="20" x2="21" y1="23" y2="23" /><line stroke="black" stroke-width="0.15" x1="22" x2="23" y1="23" y2="23" /><line stroke="black" stroke-width="0.15" x1="24" x2="25" y1="23" y2="23" /><line stroke="black" stroke-width="0.15" x1="26" x2="27" y1="23" y2="23" /><line stroke="black" stroke-width="0.15" x1="28" x2="29" y1="23" y2="23" /><line stroke="black" stroke-width="0.15" x1="30" x2="31" y1="23" y2="23" /><line stroke="black" stroke-width="0.15" x1="32" x2="33" y1="23" y2="23" /><line stroke="black" stroke-width="0.15" x1="34" x2="35" y1="23" y2="23" /><line stroke="black" stroke-width="0.15" x1="36" x2="37" y1="23" y2="23" /><line stroke="black" stroke-width="0.15" x1="38" x2="39" y1="23" y2="23" /><line stroke="black" stroke-width="0.15" x1="40" x2="41" y1="23" y2="23" /><line stroke="black" stroke-width="0.15" x1="42" x2="43" y1="23" y2="23" /><line stroke="black" stroke-width="0.15" x1="44" x2="45" y1="23" y2="23" /><line stroke="black" stroke-width="0.15" x1="46" x2="47" y1="23" y2="23" /><line stroke="black" stroke-width="0.15" x1="48" x2="49" y1="23" y2="23" /><line stroke="black" stroke-width="0.15" x1="50" x2="51" y1="23" y2="23" /><line stroke="black" stroke-width="0.15" x1="52" x2="53" y1="23" y2="23" /><line stroke="black" stroke-width="0.15" x1="54" x2="55" y1="23" y2="23" /><line stroke="black" stroke-width="0.15" x1="56" x2="57" y1="23" y2="23" /><text fill="black" font-family="Verdana" font-size="2.25" x="3" y="24">3</text><line stroke="black" stroke-width="0.15" x1="8" x2="9" y1="27" y2="27" /><line stroke="black" stroke-width="0.15" x1="10" x2="11" y1="27" y2="27" /><line stroke="black" stroke-width="0.15" x1="12" x2="13" y1="27" y2="27" /><line stroke="black" stroke-width="0.15" x1="14" x2="15" y1="27" y2="27" /><line stroke="black" stroke-width="0.15" x1="16" x2="17" y1="27" y2="27" /><line stroke="black" stroke-width="0.15" x1="18" x2="19" y1="27" y2="27" /><line stroke="black" stroke-width="0.15" x1="20" x2="21" y1="27" y2="27" /><line stroke="black" stroke-width="0.15" x1="22" x2="23" y1="27" y2="27" /><line stroke="black" stroke-width="0.15" x1="24" x2="25" y1="27" y2="27" /><line stroke="black" stroke-width="0.15" x1="26" x2="27" y1="27" y2="27" /><line stroke="black" stroke-width="0.15" x1="28" x2="29" y1="27" y2="27" /><line stroke="black" stroke-width="0.15" x1="30" x2="31" y1="27" y2="27" /><line stroke="black" stroke-width="0.15" x1="32" x2="33" y1="27" y2="27" /><line stroke="black" stroke-width="0.15" x1="34" x2="35" y1="27" y2="27" /><line stroke="black" stroke-width="0.15" x1="36" x2="37" y1="27" y2="27" /><line stroke="black" stroke-width="0.15" x1="38" x2="39" y1="27" y2="27" /><line stroke="black" stroke-width="0.15" x1="40" x2="41" y1="27" y2="27" /><line stroke="black" stroke-width="0.15" x1="42" x2="43" y1="27" y2="27" /><line stroke="black" stroke-width="0.15" x1="44" x2="45" y1="27" y2="27" /><line stroke="black" stroke-width="0.15" x1="46" x2="47" y1="27" y2="27" /><line stroke="black" stroke-width="0.15" x1="48" x2="49" y1="27" y2="27" /><line stroke="black" stroke-width="0.15" x1="50" x2="51" y1="27" y2="27" /><line stroke="black" stroke-width="0.15" x1="52" x2="53" y1="27" y2="27" /><line stroke="black" stroke-width="0.15" x1="54" x2="55" y1="27" y2="27" /><line stroke="black" stroke-width="0.15" x1="56" x2="57" y1="27" y2="27" /><text fill="black" font-family="Verdana" font-size="2.25" x="3" y="28">4</text><line stroke="black" stroke-width="0.15" x1="8" x2="9" y1="31" y2="31" /><line stroke="black" stroke-width="0.15" x1="10" x2="11" y1="31" y2="31" /><line stroke="black" stroke-width="0.15" x1="12" x2="13" y1="31" y2="31" /><line stroke="black" stroke-width="0.15" x1="14" x2="15" y1="31" y2="31" /><line stroke="black" stroke-width="0.15" x1="16" x2="17" y1="31" y2="31" /><line stroke="black" stroke-width="0.15" x1="18" x2="19" y1="31" y2="31" /><line stroke="black" stroke-width="0.15" x1="20" x2="21" y1="31" y2="31" /><line stroke="black" stroke-width="0.15" x1="22" x2="23" y1="31" y2="31" /><line stroke="black" stroke-width="0.15" x1="24" x2="25" y1="31" y2="31" /><line stroke="black" stroke-width="0.15" x1="26" x2="27" y1="31" y2="31" /><line stroke="black" stroke-width="0.15" x1="28" x2="29" y1="31" y2="31" /><line stroke="black" stroke-width="0.15" x1="30" x2="31" y1="31" y2="31" /><line stroke="black" stroke-width="0.15" x1="32" x2="33" y1="31" y2="31" /><line stroke="black" stroke-width="0.15" x1="34" x2="35" y1="31" y2="31" /><line stroke="black" stroke-width="0.15" x1="36" x2="37" y1="31" y2="31" /><line stroke="black" stroke-width="0.15" x1="38" x2="39" y1="31" y2="31" /><line stroke="black" stroke-width="0.15" x1="40" x2="41" y1="31" y2="31" /><line stroke="black" stroke-width="0.15" x1="42" x2="43" y1="31" y2="31" /><line stroke="black" stroke-width="0.15" x1="44" x2="45" y1="31" y2="31" /><line stroke="black" stroke-width="0.15" x1="46" x2="47" y1="31" y2="31" /><line stroke="black" stroke-width="0.15" x1="48" x2="49" y1="31" y2="31" /><line stroke="black" stroke-width="0.15" x1="50" x2="51" y1="31" y2="31" /><line stroke="black" stroke-width="0.15" x1="52" x2="53" y1="31" y2="31" /><line stroke="black" stroke-width="0.15" x1="54" x2="55" y1="31" y2="31" /><line stroke="black" stroke-width="0.15" x1="56" x2="57" y1="31" y2="31" /><text fill="black" font-family="Verdana" font-size="2.25" x="3" y="32">5</text><line stroke="black" stroke-width="0.15" x1="8" x2="9" y1="35" y2="35" /><line stroke="black" stroke-width="0.15" x1="10" x2="11" y1="35" y2="35" /><line stroke="black" stroke-width="0.15" x1="12" x2="13" y1="35" y2="35" /><line stroke="black" stroke-width="0.15" x1="14" x2="15" y1="35" y2="35" /><line stroke="black" stroke-width="0.15" x1="16" x2="17" y1="35" y2="35" /><line stroke="black" stroke-width="0.15" x1="18" x2="19" y1="35" y2="35" /><line stroke="black" stroke-width="0.15" x1="20" x2="21" y1="35" y2="35" /><line stroke="black" stroke-width="0.15" x1="22" x2="23" y1="35" y2="35" /><line stroke="black" stroke-width="0.15" x1="24" x2="25" y1="35" y2="35" /><line stroke="black" stroke-width="0.15" x1="26" x2="27" y1="35" y2="35" /><line stroke="black" stroke-width="0.15" x1="28" x2="29" y1="35" y2="35" /><line stroke="black" stroke-width="0.15" x1="30" x2="31" y1="35" y2="35" /><line stroke="black" stroke-width="0.15" x1="32" x2="33" y1="35" y2="35" /><line stroke="black" stroke-width="0.15" x1="34" x2="35" y1="35" y2="35" /><line stroke="black" stroke-width="0.15" x1="36" x2="37" y1="35" y2="35" /><line stroke="black" stroke-width="0.15" x1="38" x2="39" y1="35" y2="35" /><line stroke="black" stroke-width="0.15" x1="40" x2="41" y1="35" y2="35" /><line stroke="black" stroke-width="0.15" x1="42" x2="43" y1="35" y2="35" /><line stroke="black" stroke-width="0.15" x1="44" x2="45" y1="35" y2="35" /><line stroke="black" stroke-width="0.15" x1="46" x2="47" y1="35" y2="35" /><line stroke="black" stroke-width="0.15" x1="48" x2="49" y1="35" y2="35" /><line stroke="black" stroke-width="0.15" x1="50" x2="51" y1="35" y2="35" /><line stroke="black" stroke-width="0.15" x1="52" x2="53" y1="35" y2="35" /><line stroke="black" stroke-width="0.15" x1="54" x2="55" y1="35" y2="35" /><line stroke="black" stroke-width="0.15" x1="56" x2="57" y1="35" y2="35" /><text fill="black" font-family="Verdana" font-size="2.25" x="3" y="36">6</text><line stroke="black" stroke-width="0.15" x1="8" x2="9" y1="39" y2="39" /><line stroke="black" stroke-width="0.15" x1="10" x2="11" y1="39" y2="39" /><line stroke="black" stroke-width="0.15" x1="12" x2="13" y1="39" y2="39" /><line stroke="black" stroke-width="0.15" x1="14" x2="15" y1="39" y2="39" /><line stroke="black" stroke-width="0.15" x1="16" x2="17" y1="39" y2="39" /><line stroke="black" stroke-width="0.15" x1="18" x2="19" y1="39" y2="39" /><line stroke="black" stroke-width="0.15" x1="20" x2="21" y1="39" y2="39" /><line stroke="black" stroke-width="0.15" x1="22" x2="23" y1="39" y2="39" /><line stroke="black" stroke-width="0.15" x1="24" x2="25" y1="39" y2="39" /><line stroke="black" stroke-width="0.15" x1="26" x2="27" y1="39" y2="39" /><line stroke="black" stroke-width="0.15" x1="28" x2="29" y1="39" y2="39" /><line stroke="black" stroke-width="0.15" x1="30" x2="31" y1="39" y2="39" /><line stroke="black" stroke-width="0.15" x1="32" x2="33" y1="39" y2="39" /><line stroke="black" stroke-width="0.15" x1="34" x2="35" y1="39" y2="39" /><line stroke="black" stroke-width="0.15" x1="36" x2="37" y1="39" y2="39" /><line stroke="black" stroke-width="0.15" x1="38" x2="39" y1="39" y2="39" /><line stroke="black" stroke-width="0.15" x1="40" x2="41" y1="39" y2="39" /><line stroke="black" stroke-width="0.15" x1="42" x2="43" y1="39" y2="39" /><line stroke="black" stroke-width="0.15" x1="44" x2="45" y1="39" y2="39" /><line stroke="black" stroke-width="0.15" x1="46" x2="47" y1="39" y2="39" /><line stroke="black" stroke-width="0.15" x1="48" x2="49" y1="39" y2="39" /><line stroke="black" stroke-width="0.15" x1="50" x2="51" y1="39" y2="39" /><line stroke="black" stroke-width="0.15" x1="52" x2="53" y1="39" y2="39" /><line stroke="black" stroke-width="0.15" x1="54" x2="55" y1="39" y2="39" /><line stroke="black" stroke-width="0.15" x1="56" x2="57" y1="39" y2="39" /><text fill="black" font-family="Verdana" font-size="2.25" x="3" y="40">7</text><line stroke="black" stroke-width="0.15" x1="8" x2="9" y1="43" y2="43" /><line stroke="black" stroke-width="0.15" x1="10" x2="11" y1="43" y2="43" /><line stroke="black" stroke-width="0.15" x1="12" x2="13" y1="43" y2="43" /><line stroke="black" stroke-width="0.15" x1="14" x2="15" y1="43" y2="43" /><line stroke="black" stroke-width="0.15" x1="16" x2="17" y1="43" y2="43" /><line stroke="black" stroke-width="0.15" x1="18" x2="19" y1="43" y2="43" /><line stroke="black" stroke-width="0.15" x1="20" x2="21" y1="43" y2="43" /><line stroke="black" stroke-width="0.15" x1="22" x2="23" y1="43" y2="43" /><line stroke="black" stroke-width="0.15" x1="24" x2="25" y1="43" y2="43" /><line stroke="black" stroke-width="0.15" x1="26" x2="27" y1="43" y2="43" /><line stroke="black" stroke-width="0.15" x1="28" x2="29" y1="43" y2="43" /><line stroke="black" stroke-width="0.15" x1="30" x2="31" y1="43" y2="43" /><line stroke="black" stroke-width="0.15" x1="32" x2="33" y1="43" y2="43" /><line stroke="black" stroke-width="0.15" x1="34" x2="35" y1="43" y2="43" /><line stroke="black" stroke-width="0.15" x1="36" x2="37" y1="43" y2="43" /><line stroke="black" stroke-width="0.15" x1="38" x2="39" y1="43" y2="43" /><line stroke="black" stroke-width="0.15" x1="40" x2="41" y1="43" y2="43" /><line stroke="black" stroke-width="0.15" x1="42" x2="43" y1="43" y2="43" /><line stroke="black" stroke-width="0.15" x1="44" x2="45" y1="43" y2="43" /><line stroke="black" stroke-width="0.15" x1="46" x2="47" y1="43" y2="43" /><line stroke="black" stroke-width="0.15" x1="48" x2="49" y1="43" y2="43" /><line stroke="black" stroke-width="0.15" x1="50" x2="51" y1="43" y2="43" /><line stroke="black" stroke-width="0.15" x1="52" x2="53" y1="43" y2="43" /><line stroke="black" stroke-width="0.15" x1="54" x2="55" y1="43" y2="43" /><line stroke="black" stroke-width="0.15" x1="56" x2="57" y1="43" y2="43" /><text fill="black" font-family="Verdana" font-size="2.25" x="3" y="44">8</text><line stroke="black" stroke-width="0.15" x1="8" x2="9" y1="47" y2="47" /><line stroke="black" stroke-width="0.15" x1="10" x2="11" y1="47" y2="47" /><line stroke="black" stroke-width="0.15" x1="12" x2="13" y1="47" y2="47" /><line stroke="black" stroke-width="0.15" x1="14" x2="15" y1="47" y2="47" /><line stroke="black" stroke-width="0.15" x1="16" x2="17" y1="47" y2="47" /><line stroke="black" stroke-width="0.15" x1="18" x2="19" y1="47" y2="47" /><line stroke="black" stroke-width="0.15" x1="20" x2="21" y1="47" y2="47" /><line stroke="black" stroke-width="0.15" x1="22" x2="23" y1="47" y2="47" /><line stroke="black" stroke-width="0.15" x1="24" x2="25" y1="47" y2="47" /><line stroke="black" stroke-width="0.15" x1="26" x2="27" y1="47" y2="47" /><line stroke="black" stroke-width="0.15" x1="28" x2="29" y1="47" y2="47" /><line stroke="black" stroke-width="0.15" x1="30" x2="31" y1="47" y2="47" /><line stroke="black" stroke-width="0.15" x1="32" x2="33" y1="47" y2="47" /><line stroke="black" stroke-width="0.15" x1="34" x2="35" y1="47" y2="47" /><line stroke="black" stroke-width="0.15" x1="36" x2="37" y1="47" y2="47" /><line stroke="black" stroke-width="0.15" x1="38" x2="39" y1="47" y2="47" /><line stroke="black" stroke-width="0.15" x1="40" x2="41" y1="47" y2="47" /><line stroke="black" stroke-width="0.15" x1="42" x2="43" y1="47" y2="47" /><line stroke="black" stroke-width="0.15" x1="44" x2="45" y1="47" y2="47" /><line stroke="black" stroke-width="0.15" x1="46" x2="47" y1="47" y2="47" /><line stroke="black" stroke-width="0.15" x1="48" x2="49" y1="47" y2="47" /><line stroke="black" stroke-width="0.15" x1="50" x2="51" y1="47" y2="47" /><line stroke="black" stroke-width="0.15" x1="52" x2="53" y1="47" y2="47" /><line stroke="black" stroke-width="0.15" x1="54" x2="55" y1="47" y2="47" /><line stroke="black" stroke-width="0.15" x1="56" x2="57" y1="47" y2="47" /><text fill="black" font-family="Verdana" font-size="2.25" x="3" y="48">9</text><image height="5.295" width="6.0" x="63" xlink:href="arrow-drawing-1.png" y="27.5" /><line stroke="black" stroke-width="0.15" x1="80" x2="81" y1="11" y2="11" /><line stroke="black" stroke-width="0.15" x1="82" x2="83" y1="11" y2="11" /><line stroke="black" stroke-width="0.15" x1="84" x2="85" y1="11" y2="11" /><line stroke="black" stroke-width="0.15" x1="86" x2="87" y1="11" y2="11" /><line stroke="black" stroke-width="0.15" x1="88" x2="89" y1="11" y2="11" /><line stroke="black" stroke-width="0.15" x1="90" x2="91" y1="11" y2="11" /><line stroke="black" stroke-width="0.15" x1="92" x2="93" y1="11" y2="11" /><line stroke="black" stroke-width="0.15" x1="94" x2="95" y1="11" y2="11" /><line stroke="black" stroke-width="0.15" x1="96" x2="97" y1="11" y2="11" /><line stroke="black" stroke-width="0.15" x1="98" x2="99" y1="11" y2="11" /><line stroke="black" stroke-width="0.15" x1="100" x2="101" y1="11" y2="11" /><line stroke="black" stroke-width="0.15" x1="102" x2="103" y1="11" y2="11" /><line stroke="black" stroke-width="0.15" x1="104" x2="105" y1="11" y2="11" /><line stroke="black" stroke-width="0.15" x1="106" x2="107" y1="11" y2="11" /><line stroke="black" stroke-width="0.15" x1="108" x2="109" y1="11" y2="11" /><line stroke="black" stroke-width="0.15" x1="110" x2="111" y1="11" y2="11" /><line stroke="black" stroke-width="0.15" x1="112" x2="113" y1="11" y2="11" /><line stroke="black" stroke-width="0.15" x1="114" x2="115" y1="11" y2="11" /><line stroke="black" stroke-width="0.15" x1="116" x2="117" y1="11" y2="11" /><line stroke="black" stroke-width="0.15" x1="118" x2="119" y1="11" y2="11" /><line stroke="black" stroke-width="0.15" x1="120" x2="121" y1="11" y2="11" /><line stroke="black" stroke-width="0.15" x1="122" x2="123" y1="11" y2="11" /><line stroke="black" stroke-width="0.15" x1="124" x2="125" y1="11" y2="11" /><line stroke="black" stroke-width="0.15" x1="126" x2="127" y1="11" y2="11" /><line stroke="black" stroke-width="0.15" x1="128" x2="129" y1="11" y2="11" /><text fill="black" font-family="Verdana" font-size="2.25" x="75" y="12">0</text><line stroke="black" stroke-width="0.15" x1="80" x2="81" y1="15" y2="15" /><line stroke="black" stroke-width="0.15" x1="82" x2="83" y1="15" y2="15" /><line stroke="black" stroke-width="0.15" x1="84" x2="85" y1="15" y2="15" /><line stroke="black" stroke-width="0.15" x1="86" x2="87" y1="15" y2="15" /><line stroke="black" stroke-width="0.15" x1="88" x2="89" y1="15" y2="15" /><line stroke="black" stroke-width="0.15" x1="90" x2="91" y1="15" y2="15" /><line stroke="black" stroke-width="0.15" x1="92" x2="93" y1="15" y2="15" /><line stroke="black" stroke-width="0.15" x1="94" x2="95" y1="15" y2="15" /><line stroke="black" stroke-width="0.15" x1="96" x2="97" y1="15" y2="15" /><line stroke="black" stroke-width="0.15" x1="98" x2="99" y1="15" y2="15" /><line stroke="black" stroke-width="0.15" x1="100" x2="101" y1="15" y2="15" /><line stroke="black" stroke-width="0.15" x1="102" x2="103" y1="15" y2="15" /><line stroke="black" stroke-width="0.15" x1="104" x2="105" y1="15" y2="15" /><line stroke="black" stroke-width="0.15" x1="106" x2="107" y1="15" y2="15" /><line stroke="black" stroke-width="0.15" x1="108" x2="109" y1="15" y2="15" /><line stroke="black" stroke-width="0.15" x1="110" x2="111" y1="15" y2="15" /><line stroke="black" stroke-width="0.15" x1="112" x2="113" y1="15" y2="15" /><line stroke="black" stroke-width="0.15" x1="114" x2="115" y1="15" y2="15" /><line stroke="black" stroke-width="0.15" x1="116" x2="117" y1="15" y2="15" /><line stroke="black" stroke-width="0.15" x1="118" x2="119" y1="15" y2="15" /><line stroke="black" stroke-width="0.15" x1="120" x2="121" y1="15" y2="15" /><line stroke="black" stroke-width="0.15" x1="122" x2="123" y1="15" y2="15" /><line stroke="black" stroke-width="0.15" x1="124" x2="125" y1="15" y2="15" /><line stroke="black" stroke-width="0.15" x1="126" x2="127" y1="15" y2="15" /><line stroke="black" stroke-width="0.15" x1="128" x2="129" y1="15" y2="15" /><text fill="black" font-family="Verdana" font-size="2.25" x="75" y="16">6</text><line stroke="black" stroke-width="0.15" x1="80" x2="81" y1="19" y2="19" /><line stroke="black" stroke-width="0.15" x1="82" x2="83" y1="19" y2="19" /><line stroke="black" stroke-width="0.15" x1="84" x2="85" y1="19" y2="19" /><line stroke="black" stroke-width="0.15" x1="86" x2="87" y1="19" y2="19" /><line stroke="black" stroke-width="0.15" x1="88" x2="89" y1="19" y2="19" /><line stroke="black" stroke-width="0.15" x1="90" x2="91" y1="19" y2="19" /><line stroke="black" stroke-width="0.15" x1="92" x2="93" y1="19" y2="19" /><line stroke="black" stroke-width="0.15" x1="94" x2="95" y1="19" y2="19" /><line stroke="black" stroke-width="0.15" x1="96" x2="97" y1="19" y2="19" /><line stroke="black" stroke-width="0.15" x1="98" x2="99" y1="19" y2="19" /><line stroke="black" stroke-width="0.15" x1="100" x2="101" y1="19" y2="19" /><line stroke="black" stroke-width="0.15" x1="102" x2="103" y1="19" y2="19" /><line stroke="black" stroke-width="0.15" x1="104" x2="105" y1="19" y2="19" /><line stroke="black" stroke-width="0.15" x1="106" x2="107" y1="19" y2="19" /><line stroke="black" stroke-width="0.15" x1="108" x2="109" y1="19" y2="19" /><line stroke="black" stroke-width="0.15" x1="110" x2="111" y1="19" y2="19" /><line stroke="black" stroke-width="0.15" x1="112" x2="113" y1="19" y2="19" /><line stroke="black" stroke-width="0.15" x1="114" x2="115" y1="19" y2="19" /><line stroke="black" stroke-width="0.15" x1="116" x2="117" y1="19" y2="19" /><line stroke="black" stroke-width="0.15" x1="118" x2="119" y1="19" y2="19" /><line stroke="black" stroke-width="0.15" x1="120" x2="121" y1="19" y2="19" /><line stroke="black" stroke-width="0.15" x1="122" x2="123" y1="19" y2="19" /><line stroke="black" stroke-width="0.15" x1="124" x2="125" y1="19" y2="19" /><line stroke="black" stroke-width="0.15" x1="126" x2="127" y1="19" y2="19" /><line stroke="black" stroke-width="0.15" x1="128" x2="129" y1="19" y2="19" /><text fill="black" font-family="Verdana" font-size="2.25" x="75" y="20">8</text><line stroke="black" stroke-width="0.15" x1="80" x2="81" y1="23" y2="23" /><line stroke="black" stroke-width="0.15" x1="82" x2="83" y1="23" y2="23" /><line stroke="black" stroke-width="0.15" x1="84" x2="85" y1="23" y2="23" /><line stroke="black" stroke-width="0.15" x1="86" x2="87" y1="23" y2="23" /><line stroke="black" stroke-width="0.15" x1="88" x2="89" y1="23" y2="23" /><line stroke="black" stroke-width="0.15" x1="90" x2="91" y1="23" y2="23" /><line stroke="black" stroke-width="0.15" x1="92" x2="93" y1="23" y2="23" /><line stroke="black" stroke-width="0.15" x1="94" x2="95" y1="23" y2="23" /><line stroke="black" stroke-width="0.15" x1="96" x2="97" y1="23" y2="23" /><line stroke="black" stroke-width="0.15" x1="98" x2="99" y1="23" y2="23" /><line stroke="black" stroke-width="0.15" x1="100" x2="101" y1="23" y2="23" /><line stroke="black" stroke-width="0.15" x1="102" x2="103" y1="23" y2="23" /><line stroke="black" stroke-width="0.15" x1="104" x2="105" y1="23" y2="23" /><line stroke="black" stroke-width="0.15" x1="106" x2="107" y1="23" y2="23" /><line stroke="black" stroke-width="0.15" x1="108" x2="109" y1="23" y2="23" /><line stroke="black" stroke-width="0.15" x1="110" x2="111" y1="23" y2="23" /><line stroke="black" stroke-width="0.15" x1="112" x2="113" y1="23" y2="23" /><line stroke="black" stroke-width="0.15" x1="114" x2="115" y1="23" y2="23" /><line stroke="black" stroke-width="0.15" x1="116" x2="117" y1="23" y2="23" /><line stroke="black" stroke-width="0.15" x1="118" x2="119" y1="23" y2="23" /><line stroke="black" stroke-width="0.15" x1="120" x2="121" y1="23" y2="23" /><line stroke="black" stroke-width="0.15" x1="122" x2="123" y1="23" y2="23" /><line stroke="black" stroke-width="0.15" x1="124" x2="125" y1="23" y2="23" /><line stroke="black" stroke-width="0.15" x1="126" x2="127" y1="23" y2="23" /><line stroke="black" stroke-width="0.15" x1="128" x2="129" y1="23" y2="23" /><text fill="black" font-family="Verdana" font-size="2.25" x="75" y="24">1</text><line stroke="black" stroke-width="0.15" x1="80" x2="81" y1="27" y2="27" /><line stroke="black" stroke-width="0.15" x1="82" x2="83" y1="27" y2="27" /><line stroke="black" stroke-width="0.15" x1="84" x2="85" y1="27" y2="27" /><line stroke="black" stroke-width="0.15" x1="86" x2="87" y1="27" y2="27" /><line stroke="black" stroke-width="0.15" x1="88" x2="89" y1="27" y2="27" /><line stroke="black" stroke-width="0.15" x1="90" x2="91" y1="27" y2="27" /><line stroke="black" stroke-width="0.15" x1="92" x2="93" y1="27" y2="27" /><line stroke="black" stroke-width="0.15" x1="94" x2="95" y1="27" y2="27" /><line stroke="black" stroke-width="0.15" x1="96" x2="97" y1="27" y2="27" /><line stroke="black" stroke-width="0.15" x1="98" x2="99" y1="27" y2="27" /><line stroke="black" stroke-width="0.15" x1="100" x2="101" y1="27" y2="27" /><line stroke="black" stroke-width="0.15" x1="102" x2="103" y1="27" y2="27" /><line stroke="black" stroke-width="0.15" x1="104" x2="105" y1="27" y2="27" /><line stroke="black" stroke-width="0.15" x1="106" x2="107" y1="27" y2="27" /><line stroke="black" stroke-width="0.15" x1="108" x2="109" y1="27" y2="27" /><line stroke="black" stroke-width="0.15" x1="110" x2="111" y1="27" y2="27" /><line stroke="black" stroke-width="0.15" x1="112" x2="113" y1="27" y2="27" /><line stroke="black" stroke-width="0.15" x1="114" x2="115" y1="27" y2="27" /><line stroke="black" stroke-width="0.15" x1="116" x2="117" y1="27" y2="27" /><line stroke="black" stroke-width="0.15" x1="118" x2="119" y1="27" y2="27" /><line stroke="black" stroke-width="0.15" x1="120" x2="121" y1="27" y2="27" /><line stroke="black" stroke-width="0.15" x1="122" x2="123" y1="27" y2="27" /><line stroke="black" stroke-width="0.15" x1="124" x2="125" y1="27" y2="27" /><line stroke="black" stroke-width="0.15" x1="126" x2="127" y1="27" y2="27" /><line stroke="black" stroke-width="0.15" x1="128" x2="129" y1="27" y2="27" /><text fill="black" font-family="Verdana" font-size="2.25" x="75" y="28">7</text><line stroke="black" stroke-width="0.15" x1="80" x2="81" y1="31" y2="31" /><line stroke="black" stroke-width="0.15" x1="82" x2="83" y1="31" y2="31" /><line stroke="black" stroke-width="0.15" x1="84" x2="85" y1="31" y2="31" /><line stroke="black" stroke-width="0.15" x1="86" x2="87" y1="31" y2="31" /><line stroke="black" stroke-width="0.15" x1="88" x2="89" y1="31" y2="31" /><line stroke="black" stroke-width="0.15" x1="90" x2="91" y1="31" y2="31" /><line stroke="black" stroke-width="0.15" x1="92" x2="93" y1="31" y2="31" /><line stroke="black" stroke-width="0.15" x1="94" x2="95" y1="31" y2="31" /><line stroke="black" stroke-width="0.15" x1="96" x2="97" y1="31" y2="31" /><line stroke="black" stroke-width="0.15" x1="98" x2="99" y1="31" y2="31" /><line stroke="black" stroke-width="0.15" x1="100" x2="101" y1="31" y2="31" /><line stroke="black" stroke-width="0.15" x1="102" x2="103" y1="31" y2="31" /><line stroke="black" stroke-width="0.15" x1="104" x2="105" y1="31" y2="31" /><line stroke="black" stroke-width="0.15" x1="106" x2="107" y1="31" y2="31" /><line stroke="black" stroke-width="0.15" x1="108" x2="109" y1="31" y2="31" /><line stroke="black" stroke-width="0.15" x1="110" x2="111" y1="31" y2="31" /><line stroke="black" stroke-width="0.15" x1="112" x2="113" y1="31" y2="31" /><line stroke="black" stroke-width="0.15" x1="114" x2="115" y1="31" y2="31" /><line stroke="black" stroke-width="0.15" x1="116" x2="117" y1="31" y2="31" /><line stroke="black" stroke-width="0.15" x1="118" x2="119" y1="31" y2="31" /><line stroke="black" stroke-width="0.15" x1="120" x2="121" y1="31" y2="31" /><line stroke="black" stroke-width="0.15" x1="122" x2="123" y1="31" y2="31" /><line stroke="black" stroke-width="0.15" x1="124" x2="125" y1="31" y2="31" /><line stroke="black" stroke-width="0.15" x1="126" x2="127" y1="31" y2="31" /><line stroke="black" stroke-width="0.15" x1="128" x2="129" y1="31" y2="31" /><text fill="black" font-family="Verdana" font-size="2.25" x="75" y="32">5</text><line stroke="black" stroke-width="0.15" x1="80" x2="81" y1="35" y2="35" /><line stroke="black" stroke-width="0.15" x1="82" x2="83" y1="35" y2="35" /><line stroke="black" stroke-width="0.15" x1="84" x2="85" y1="35" y2="35" /><line stroke="black" stroke-width="0.15" x1="86" x2="87" y1="35" y2="35" /><line stroke="black" stroke-width="0.15" x1="88" x2="89" y1="35" y2="35" /><line stroke="black" stroke-width="0.15" x1="90" x2="91" y1="35" y2="35" /><line stroke="black" stroke-width="0.15" x1="92" x2="93" y1="35" y2="35" /><line stroke="black" stroke-width="0.15" x1="94" x2="95" y1="35" y2="35" /><line stroke="black" stroke-width="0.15" x1="96" x2="97" y1="35" y2="35" /><line stroke="black" stroke-width="0.15" x1="98" x2="99" y1="35" y2="35" /><line stroke="black" stroke-width="0.15" x1="100" x2="101" y1="35" y2="35" /><line stroke="black" stroke-width="0.15" x1="102" x2="103" y1="35" y2="35" /><line stroke="black" stroke-width="0.15" x1="104" x2="105" y1="35" y2="35" /><line stroke="black" stroke-width="0.15" x1="106" x2="107" y1="35" y2="35" /><line stroke="black" stroke-width="0.15" x1="108" x2="109" y1="35" y2="35" /><line stroke="black" stroke-width="0.15" x1="110" x2="111" y1="35" y2="35" /><line stroke="black" stroke-width="0.15" x1="112" x2="113" y1="35" y2="35" /><line stroke="black" stroke-width="0.15" x1="114" x2="115" y1="35" y2="35" /><line stroke="black" stroke-width="0.15" x1="116" x2="117" y1="35" y2="35" /><line stroke="black" stroke-width="0.15" x1="118" x2="119" y1="35" y2="35" /><line stroke="black" stroke-width="0.15" x1="120" x2="121" y1="35" y2="35" /><line stroke="black" stroke-width="0.15" x1="122" x2="123" y1="35" y2="35" /><line stroke="black" stroke-width="0.15" x1="124" x2="125" y1="35" y2="35" /><line stroke="black" stroke-width="0.15" x1="126" x2="127" y1="35" y2="35" /><line stroke="black" stroke-width="0.15" x1="128" x2="129" y1="35" y2="35" /><text fill="black" font-family="Verdana" font-size="2.25" x="75" y="36">9</text><line stroke="black" stroke-width="0.15" x1="80" x2="81" y1="39" y2="39" /><line stroke="black" stroke-width="0.15" x1="82" x2="83" y1="39" y2="39" /><line stroke="black" stroke-width="0.15" x1="84" x2="85" y1="39" y2="39" /><line stroke="black" stroke-width="0.15" x1="86" x2="87" y1="39" y2="39" /><line stroke="black" stroke-width="0.15" x1="88" x2="89" y1="39" y2="39" /><line stroke="black" stroke-width="0.15" x1="90" x2="91" y1="39" y2="39" /><line stroke="black" stroke-width="0.15" x1="92" x2="93" y1="39" y2="39" /><line stroke="black" stroke-width="0.15" x1="94" x2="95" y1="39" y2="39" /><line stroke="black" stroke-width="0.15" x1="96" x2="97" y1="39" y2="39" /><line stroke="black" stroke-width="0.15" x1="98" x2="99" y1="39" y2="39" /><line stroke="black" stroke-width="0.15" x1="100" x2="101" y1="39" y2="39" /><line stroke="black" stroke-width="0.15" x1="102" x2="103" y1="39" y2="39" /><line stroke="black" stroke-width="0.15" x1="104" x2="105" y1="39" y2="39" /><line stroke="black" stroke-width="0.15" x1="106" x2="107" y1="39" y2="39" /><line stroke="black" stroke-width="0.15" x1="108" x2="109" y1="39" y2="39" /><line stroke="black" stroke-width="0.15" x1="110" x2="111" y1="39" y2="39" /><line stroke="black" stroke-width="0.15" x1="112" x2="113" y1="39" y2="39" /><line stroke="black" stroke-width="0.15" x1="114" x2="115" y1="39" y2="39" /><line stroke="black" stroke-width="0.15" x1="116" x2="117" y1="39" y2="39" /><line stroke="black" stroke-width="0.15" x1="118" x2="119" y1="39" y2="39" /><line stroke="black" stroke-width="0.15" x1="120" x2="121" y1="39" y2="39" /><line stroke="black" stroke-width="0.15" x1="122" x2="123" y1="39" y2="39" /><line stroke="black" stroke-width="0.15" x1="124" x2="125" y1="39" y2="39" /><line stroke="black" stroke-width="0.15" x1="126" x2="127" y1="39" y2="39" /><line stroke="black" stroke-width="0.15" x1="128" x2="129" y1="39" y2="39" /><text fill="black" font-family="Verdana" font-size="2.25" x="75" y="40">4</text><line stroke="black" stroke-width="0.15" x1="80" x2="81" y1="43" y2="43" /><line stroke="black" stroke-width="0.15" x1="82" x2="83" y1="43" y2="43" /><line stroke="black" stroke-width="0.15" x1="84" x2="85" y1="43" y2="43" /><line stroke="black" stroke-width="0.15" x1="86" x2="87" y1="43" y2="43" /><line stroke="black" stroke-width="0.15" x1="88" x2="89" y1="43" y2="43" /><line stroke="black" stroke-width="0.15" x1="90" x2="91" y1="43" y2="43" /><line stroke="black" stroke-width="0.15" x1="92" x2="93" y1="43" y2="43" /><line stroke="black" stroke-width="0.15" x1="94" x2="95" y1="43" y2="43" /><line stroke="black" stroke-width="0.15" x1="96" x2="97" y1="43" y2="43" /><line stroke="black" stroke-width="0.15" x1="98" x2="99" y1="43" y2="43" /><line stroke="black" stroke-width="0.15" x1="100" x2="101" y1="43" y2="43" /><line stroke="black" stroke-width="0.15" x1="102" x2="103" y1="43" y2="43" /><line stroke="black" stroke-width="0.15" x1="104" x2="105" y1="43" y2="43" /><line stroke="black" stroke-width="0.15" x1="106" x2="107" y1="43" y2="43" /><line stroke="black" stroke-width="0.15" x1="108" x2="109" y1="43" y2="43" /><line stroke="black" stroke-width="0.15" x1="110" x2="111" y1="43" y2="43" /><line stroke="black" stroke-width="0.15" x1="112" x2="113" y1="43" y2="43" /><line stroke="black" stroke-width="0.15" x1="114" x2="115" y1="43" y2="43" /><line stroke="black" stroke-width="0.15" x1="116" x2="117" y1="43" y2="43" /><line stroke="black" stroke-width="0.15" x1="118" x2="119" y1="43" y2="43" /><line stroke="black" stroke-width="0.15" x1="120" x2="121" y1="43" y2="43" /><line stroke="black" stroke-width="0.15" x1="122" x2="123" y1="43" y2="43" /><line stroke="black" stroke-width="0.15" x1="124" x2="125" y1="43" y2="43" /><line stroke="black" stroke-width="0.15" x1="126" x2="127" y1="43" y2="43" /><line stroke="black" stroke-width="0.15" x1="128" x2="129" y1="43" y2="43" /><text fill="black" font-family="Verdana" font-size="2.25" x="75" y="44">3</text><line stroke="black" stroke-width="0.15" x1="80" x2="81" y1="47" y2="47" /><line stroke="black" stroke-width="0.15" x1="82" x2="83" y1="47" y2="47" /><line stroke="black" stroke-width="0.15" x1="84" x2="85" y1="47" y2="47" /><line stroke="black" stroke-width="0.15" x1="86" x2="87" y1="47" y2="47" /><line stroke="black" stroke-width="0.15" x1="88" x2="89" y1="47" y2="47" /><line stroke="black" stroke-width="0.15" x1="90" x2="91" y1="47" y2="47" /><line stroke="black" stroke-width="0.15" x1="92" x2="93" y1="47" y2="47" /><line stroke="black" stroke-width="0.15" x1="94" x2="95" y1="47" y2="47" /><line stroke="black" stroke-width="0.15" x1="96" x2="97" y1="47" y2="47" /><line stroke="black" stroke-width="0.15" x1="98" x2="99" y1="47" y2="47" /><line stroke="black" stroke-width="0.15" x1="100" x2="101" y1="47" y2="47" /><line stroke="black" stroke-width="0.15" x1="102" x2="103" y1="47" y2="47" /><line stroke="black" stroke-width="0.15" x1="104" x2="105" y1="47" y2="47" /><line stroke="black" stroke-width="0.15" x1="106" x2="107" y1="47" y2="47" /><line stroke="black" stroke-width="0.15" x1="108" x2="109" y1="47" y2="47" /><line stroke="black" stroke-width="0.15" x1="110" x2="111" y1="47" y2="47" /><line stroke="black" stroke-width="0.15" x1="112" x2="113" y1="47" y2="47" /><line stroke="black" stroke-width="0.15" x1="114" x2="115" y1="47" y2="47" /><line stroke="black" stroke-width="0.15" x1="116" x2="117" y1="47" y2="47" /><line stroke="black" stroke-width="0.15" x1="118" x2="119" y1="47" y2="47" /><line stroke="black" stroke-width="0.15" x1="120" x2="121" y1="47" y2="47" /><line stroke="black" stroke-width="0.15" x1="122" x2="123" y1="47" y2="47" /><line stroke="black" stroke-width="0.15" x1="124" x2="125" y1="47" y2="47" /><line stroke="black" stroke-width="0.15" x1="126" x2="127" y1="47" y2="47" /><line stroke="black" stroke-width="0.15" x1="128" x2="129" y1="47" y2="47" /><text fill="black" font-family="Verdana" font-size="2.25" x="75" y="48">2</text><path d="m 12 15 Q 23.428571428571427 27.0 12 39" fill="none" stroke="black" stroke-width="0.25" /><circle cx="12" cy="15" fill="black" r="0.4" stroke="black" stroke-width="0.1" /><circle cx="12" cy="39" fill="black" r="0.4" stroke="black" stroke-width="0.1" /><path d="m 12 19 Q 15.934426229508198 23.0 12 27" fill="none" stroke="black" stroke-width="0.25" /><circle cx="12" cy="19" fill="black" r="0.4" stroke="black" stroke-width="0.1" /><circle cx="12" cy="27" fill="black" r="0.4" stroke="black" stroke-width="0.1" /><path d="m 12 19 Q 23.428571428571427 31.0 12 43" fill="none" stroke="black" stroke-width="0.25" /><circle cx="12" cy="19" fill="black" r="0.4" stroke="black" stroke-width="0.1" /><circle cx="12" cy="43" fill="black" r="0.4" stroke="black" stroke-width="0.1" /><path d="m 12 23 Q 22.344827586206897 33.0 12 43" fill="none" stroke="black" stroke-width="0.25" /><circle cx="12" cy="23" fill="black" r="0.4" stroke="black" stroke-width="0.1" /><circle cx="12" cy="43" fill="black" r="0.4" stroke="black" stroke-width="0.1" /><path d="m 12 27 Q 13.224489795918368 29.0 12 31" fill="none" stroke="black" stroke-width="0.25" /><circle cx="12" cy="27" fill="black" r="0.4" stroke="black" stroke-width="0.1" /><circle cx="12" cy="31" fill="black" r="0.4" stroke="black" stroke-width="0.1" /><path d="m 12 31 Q 15.934426229508198 35.0 12 39" fill="none" stroke="black" stroke-width="0.25" /><circle cx="12" cy="31" fill="black" r="0.4" stroke="black" stroke-width="0.1" /><circle cx="12" cy="39" fill="black" r="0.4" stroke="black" stroke-width="0.1" /><path d="m 12 39 Q 13.224489795918368 41.0 12 43" fill="none" stroke="black" stroke-width="0.25" /><circle cx="12" cy="39" fill="black" r="0.4" stroke="black" stroke-width="0.1" /><circle cx="12" cy="43" fill="black" r="0.4" stroke="black" stroke-width="0.1" /><path d="m 12 39 Q 15.934426229508198 43.0 12 47" fill="none" stroke="black" stroke-width="0.25" /><circle cx="12" cy="39" fill="black" r="0.4" stroke="black" stroke-width="0.1" /><circle cx="12" cy="47" fill="black" r="0.4" stroke="black" stroke-width="0.1" /><path d="m 22 15 Q 28.666666666666664 21.0 22 27" fill="none" stroke="black" stroke-width="0.25" /><circle cx="22" cy="15" fill="black" r="0.4" stroke="black" stroke-width="0.1" /><circle cx="22" cy="27" fill="black" r="0.4" stroke="black" stroke-width="0.1" /><path d="m 22 19 Q 30.807339449541285 27.0 22 35" fill="none" stroke="black" stroke-width="0.25" /><circle cx="22" cy="19" fill="black" r="0.4" stroke="black" stroke-width="0.1" /><circle cx="22" cy="35" fill="black" r="0.4" stroke="black" stroke-width="0.1" /><path d="m 22 43 Q 23.224489795918366 45.0 22 47" fill="none" stroke="black" stroke-width="0.25" /><circle cx="22" cy="43" fill="black" r="0.4" stroke="black" stroke-width="0.1" /><circle cx="22" cy="47" fill="black" r="0.4" stroke="black" stroke-width="0.1" /><path d="m 87 23 Q 88.22448979591837 25.0 87 27" fill="none" stroke="black" stroke-width="0.25" /><circle cx="87" cy="23" fill="black" r="0.4" stroke="black" stroke-width="0.1" /><circle cx="87" cy="27" fill="black" r="0.4" stroke="black" stroke-width="0.1" /><path d="m 87 47 Q 90.93442622950819 43.0 87 39" fill="none" stroke="black" stroke-width="0.25" /><circle cx="87" cy="47" fill="black" r="0.4" stroke="black" stroke-width="0.1" /><circle cx="87" cy="39" fill="black" r="0.4" stroke="black" stroke-width="0.1" /><path d="m 87 47 Q 99.19917012448133 33.0 87 19" fill="none" stroke="black" stroke-width="0.25" /><circle cx="87" cy="47" fill="black" r="0.4" stroke="black" stroke-width="0.1" /><circle cx="87" cy="19" fill="black" r="0.4" stroke="black" stroke-width="0.1" /><path d="m 87 43 Q 98.42857142857143 31.0 87 19" fill="none" stroke="black" stroke-width="0.25" /><circle cx="87" cy="43" fill="black" r="0.4" stroke="black" stroke-width="0.1" /><circle cx="87" cy="19" fill="black" r="0.4" stroke="black" stroke-width="0.1" /><path d="m 87 39 Q 90.93442622950819 35.0 87 31" fill="none" stroke="black" stroke-width="0.25" /><circle cx="87" cy="39" fill="black" r="0.4" stroke="black" stroke-width="0.1" /><circle cx="87" cy="31" fill="black" r="0.4" stroke="black" stroke-width="0.1" /><path d="m 87 31 Q 88.22448979591837 29.0 87 27" fill="none" stroke="black" stroke-width="0.25" /><circle cx="87" cy="31" fill="black" r="0.4" stroke="black" stroke-width="0.1" /><circle cx="87" cy="27" fill="black" r="0.4" stroke="black" stroke-width="0.1" /><path d="m 87 27 Q 90.93442622950819 23.0 87 19" fill="none" stroke="black" stroke-width="0.25" /><circle cx="87" cy="27" fill="black" r="0.4" stroke="black" stroke-width="0.1" /><circle cx="87" cy="19" fill="black" r="0.4" stroke="black" stroke-width="0.1" /><path d="m 87 27 Q 90.93442622950819 31.0 87 35" fill="none" stroke="black" stroke-width="0.25" /><circle cx="87" cy="27" fill="black" r="0.4" stroke="black" stroke-width="0.1" /><circle cx="87" cy="35" fill="black" r="0.4" stroke="black" stroke-width="0.1" /><path d="m 97 23 Q 105.80733944954129 31.0 97 39" fill="none" stroke="black" stroke-width="0.25" /><circle cx="97" cy="23" fill="black" r="0.4" stroke="black" stroke-width="0.1" /><circle cx="97" cy="39" fill="black" r="0.4" stroke="black" stroke-width="0.1" /><path d="m 97 47 Q 109.75747508305648 31.0 97 15" fill="none" stroke="black" stroke-width="0.25" /><circle cx="97" cy="47" fill="black" r="0.4" stroke="black" stroke-width="0.1" /><circle cx="97" cy="15" fill="black" r="0.4" stroke="black" stroke-width="0.1" /><path d="m 97 19 Q 105.80733944954129 27.0 97 35" fill="none" stroke="black" stroke-width="0.25" /><circle cx="97" cy="19" fill="black" r="0.4" stroke="black" stroke-width="0.1" /><circle cx="97" cy="35" fill="black" r="0.4" stroke="black" stroke-width="0.1" /></svg>